<svg id="Layer_1" data-name="Layer 1" xmlns="http://www.w3.org/2000/svg" viewBox="0 0 265.6 258.23"><defs><style>.cls-1{fill:#d3d3d3;}.cls-2{fill:#caf5ad;}.cls-3{fill:#f2f3f1;}.cls-4{fill:#67fe00;}.cls-5{fill:#67fd01;}.cls-6{fill:#66fd01;}.cls-7{fill:#010101;}.cls-8{fill:#000100;}.cls-9{fill:#56d500;}.cls-10{fill:#4bad07;}.cls-11{fill:#fefefd;}.cls-12{fill:#202020;}.cls-13{fill:#212121;}.cls-14{fill:#464a44;}.cls-15{fill:#a6fa6e;}.cls-16{fill:#010100;}</style></defs><path d="M1038.16,617.73c-10.22,13.44-22.05,25.17-36.45,34.15-24.85,15.51-51.86,22.56-81.17,20.72a133.74,133.74,0,0,1-75.15-28.47c-.91-.71-1.94-1.24-2.91-1.86-4-2.33-7.16-5.69-10.4-8.92-2.41-2.22-4.12-5-6.08-7.57C815.14,612,806.52,597,801.67,580.17q-15.36-53.35,12.74-101.44c1.18-2,1.6-3.54.51-5.88-2.22-4.74-2.31-10-2.25-15.13a119.43,119.43,0,0,1,1.69-18.92c1.93-11.17,16.65-17.64,25.49-12.69A72.35,72.35,0,0,1,853,435.33c1.68,1.51,2.44,1,3.8.12A132.06,132.06,0,0,1,904.16,417c30-5.41,58.75-1.45,86,12.24,2.56,1.28,3.75,1.36,5.67-1.29a32.48,32.48,0,0,1,20.07-12.87,17.35,17.35,0,0,1,19.4,9.74c5.05,10.36,4.64,21,1.89,31.78a22.19,22.19,0,0,1-.74,2.4c-1.74,4.35-.87,7.91,2,11.85,15.36,21.38,23,45.45,23.39,71.7A124.67,124.67,0,0,1,1049.6,598c-.25.53-.41,1.11-.61,1.66A46.31,46.31,0,0,1,1038.16,617.73Z" transform="translate(-796.24 -414.66)"/><path class="cls-1" d="M1038.16,617.73,1049,599.67A23.86,23.86,0,0,1,1038.16,617.73Z" transform="translate(-796.24 -414.66)"/><path class="cls-2" d="M832.52,632.78c3.28,3.21,7,5.94,10,9.49-3.3-.36-5.69-2.36-7.92-4.55-.59-.59-1.06-1.22-2-1.29C831.51,635.23,831,634,832.52,632.78Z" transform="translate(-796.24 -414.66)"/><path class="cls-3" d="M832.52,632.78a5.27,5.27,0,0,0,.08,3.65c-2.75-3.21-5.45-6.45-6.6-10.65C828.65,627.67,830.38,630.42,832.52,632.78Z" transform="translate(-796.24 -414.66)"/><path class="cls-4" d="M799.12,543.83c1-42.29,18.49-76.19,52.49-101.42a123.94,123.94,0,0,1,64.16-24.3c40.51-3.47,75.94,8.37,105.45,36.88a120.34,120.34,0,0,1,36.19,69.23c5.59,35.3-2.9,67.43-24.74,95.68-21.15,27.36-49.4,43.44-83.4,48.7-65.88,10.21-130.3-30-146.65-95.6A115.26,115.26,0,0,1,799.12,543.83Z" transform="translate(-796.24 -414.66)"/><path class="cls-5" d="M1032.25,461.52c-3.33-3-6.79-5.79-9.77-9a98.55,98.55,0,0,0-24.11-18.76c-2.39-1.35-2.42-2.35-.81-4.15,5.55-6.19,12-10.86,20.4-12.3,5.91-1,12.43,3.57,14.76,9.06C1037.69,438.13,1034.58,452.85,1032.25,461.52Z" transform="translate(-796.24 -414.66)"/><path class="cls-6" d="M817.76,472.07a76.2,76.2,0,0,1-1.48-27.25c.73-6.61,3.19-10.95,8.6-14.58,5.68-3.82,10.83-2.47,16.14.11,3.37,1.63,5.91,4.41,8.7,6.84,1.62,1.42,1.47,2.23-.19,3.51-6.91,5.3-13.69,10.76-20.07,16.7A67.68,67.68,0,0,0,817.76,472.07Z" transform="translate(-796.24 -414.66)"/><path class="cls-7" d="M888.67,530.46c-.46,13.18-5.29,25.2-16.39,34.07a36.59,36.59,0,0,1-51.41-5.63c-13.68-16.67-14-41.08-.79-57.75,18.49-23.32,53.26-17.77,64.92,10.36A49.35,49.35,0,0,1,888.67,530.46Z" transform="translate(-796.24 -414.66)"/><path class="cls-7" d="M1029,539.4c-3.52,20.33-29.18,26.49-43,13-10.53-10.29-8.69-26.84,3.88-34.79a29.63,29.63,0,0,1,13.71-4.64c10.56-.73,21.9,8,24.69,18.26.15.57.39,1.12.59,1.68A9.52,9.52,0,0,1,1029,539.4Z" transform="translate(-796.24 -414.66)"/><path class="cls-8" d="M928.12,624.29c-12.34.21-24-2.25-34.41-9.26-16.85-11.4-16.79-29.67,0-41.12,8.12-5.53,17.26-8.27,26.87-9.15,12.83-1.18,25.33.29,37,6.24a40.47,40.47,0,0,1,9.68,6.76c10.72,10.24,10.41,24.5-.8,34.22-9,7.84-19.91,11.11-31.56,12.28C932.7,624.48,930.4,624.29,928.12,624.29Z" transform="translate(-796.24 -414.66)"/><path class="cls-9" d="M1029,539.4l-.09-6.47C1030.39,535.07,1031.06,537.21,1029,539.4Z" transform="translate(-796.24 -414.66)"/><path class="cls-10" d="M1028.9,438.68c.18,3.13-.79,6-1.12,8.93-.39,3.43-2.41,2.44-3.89,1.39-2.9-2.06-5.56-4.48-8.31-6.77-3.12-2.59-6.09-5.37-9.38-7.72-2.3-1.64-1.94-3.24-.33-4.61,4.62-3.94,9.6-6.84,16.17-5.74a6.48,6.48,0,0,1,5.87,5.79C1028.37,432.86,1029.21,435.78,1028.9,438.68Z" transform="translate(-796.24 -414.66)"/><path class="cls-10" d="M819.66,453.06c.6-3.31.94-7.53,2.18-11.47,2.48-7.81,12-12.09,19-3.62,3.61,4.32,3.65,4.22-1.12,7.45a64.84,64.84,0,0,0-16,14.69c-.67.91-1.06,2.58-2.52,2.15-1.71-.52-.76-2.25-.94-3.45C820,457.17,819.91,455.51,819.66,453.06Z" transform="translate(-796.24 -414.66)"/><path class="cls-11" d="M816,514.86c3.22-12,14.9-22.76,27.36-25.12,21.14-4,38.61,12.95,41.7,31.25,2.4,14.17-.29,27.09-10.36,37.62-16.73,17.5-42.9,14.22-55.39-6.58a46.84,46.84,0,0,1-5.54-14.63c3.65,3.7,7.4,6.15,12.31,6.4a16.26,16.26,0,0,0,12.71-4.69,16.71,16.71,0,0,0,1.23-22.2C833.92,509.61,825.08,508.77,816,514.86Z" transform="translate(-796.24 -414.66)"/><path class="cls-12" d="M825.29,541h4.12l0,.31h-4Z" transform="translate(-796.24 -414.66)"/><path class="cls-11" d="M1026.09,538.7c-.78,7.89-5.31,13.19-12.28,16.11-9,3.79-17.74,2.74-25.32-3.77a18.33,18.33,0,0,1-6.12-18.77c1.79-8,7.47-12.9,15.24-15.11a23.31,23.31,0,0,1,18.62,2.4c1,.57,2.18,1,2.45,2.36-9.85-1-16.08,6.32-13.55,16,1.34,5.1,5.44,8.63,10.11,8.71s8.55-3.06,10.23-8.42c.16-.15.34-.25.48-.2C1026.31,538.15,1026.2,538.43,1026.09,538.7Z" transform="translate(-796.24 -414.66)"/><path class="cls-13" d="M1023.32,535.68v-3.45A3.25,3.25,0,0,1,1023.32,535.68Z" transform="translate(-796.24 -414.66)"/><path class="cls-14" d="M1026.09,538.7l-.62-.51c.25-1,.49-2,.74-3C1026.69,536.39,1027.14,537.58,1026.09,538.7Z" transform="translate(-796.24 -414.66)"/><path class="cls-15" d="M929.37,622.26c-13.91-.91-26-2.85-36.16-11-13.18-10.64-12.56-25,1.4-34.67,8.31-5.76,17.63-8.38,27.63-9.2a65.06,65.06,0,0,1,32.38,5.12A36.79,36.79,0,0,1,966,580.34c8.8,9,8.63,20.31-.55,28.9-8,7.45-17.78,10.69-28.29,12C934.15,621.69,931.07,622.53,929.37,622.26Z" transform="translate(-796.24 -414.66)"/><path class="cls-16" d="M919.55,589.46c0,7.4-5.31,13.21-12.07,13.22s-12.28-5.94-12.38-13.12S901,576,907.55,576.07,919.55,582.14,919.55,589.46Z" transform="translate(-796.24 -414.66)"/><path class="cls-16" d="M952,586.34c0,5.32-4.17,9.89-9.27,9.75a9.73,9.73,0,0,1-9.55-10.26c.35-5.36,4.16-9.65,9.33-9.75C947.84,576,952,580.47,952,586.34Z" transform="translate(-796.24 -414.66)"/></svg>