<?xml version="1.0" encoding="UTF-8"?>
<svg id="uuid-32de3df5-8680-4617-81f8-c4d5ea87c729" data-name="Layer 2" xmlns="http://www.w3.org/2000/svg" xmlns:xlink="http://www.w3.org/1999/xlink" viewBox="0 0 1917.08 527.57">
  <defs>
    <style>
      .uuid-8f98bd8e-cd3d-4ccd-b49d-27b41495c413 {
        fill: url(#uuid-299c5b41-35e3-4c84-8b3d-1a85e1282d53);
      }

      .uuid-8f98bd8e-cd3d-4ccd-b49d-27b41495c413, .uuid-c5729ae3-5e2c-4819-b180-c0fad02a437c {
        stroke-width: 0px;
      }

      .uuid-c5729ae3-5e2c-4819-b180-c0fad02a437c {
        fill: #fff;
      }
    </style>
    <radialGradient id="uuid-299c5b41-35e3-4c84-8b3d-1a85e1282d53" cx="959.11" cy="1038" fx="881.89" fy="1088.79" r="1214.92" gradientUnits="userSpaceOnUse">
      <stop offset=".17" stop-color="#fff"/>
      <stop offset=".25" stop-color="#fff5e9"/>
      <stop offset="1" stop-color="#ff931e"/>
    </radialGradient>
  </defs>
  <g id="uuid-205da97c-fea9-4411-9ab2-a85f904b7239" data-name="Layer 1">
    <g id="uuid-d64990f7-d21a-4214-ad83-574140101519" data-name="Layer 2">
      <g>
        <path class="uuid-c5729ae3-5e2c-4819-b180-c0fad02a437c" d="M246.24,492.39c-16.13-12.9-27.76-21.05-35.92-26.19-2.89,11.32-6.76,18.82-12.39,24.46-10.24,10.21-23.56,12.84-64.8,12.84-56.4,0-91.59-8.13-110.75-25.59l-17.24-16.09-3.87-43.3c-.88-8.47-1.28-22.32-1.28-43.57,0-77.03,6.46-162.85,19.19-255.08,3.73-26.97,6.78-43.88,9.58-53.22,4.1-13.66,11.2-24.48,21.12-32.19,8.6-6.8,22.2-12.88,60.23-20.43,27.77-5.51,52.29-8.31,72.88-8.31h4.58c29.36,0,58.3,4.54,86,13.49,48.63,15.92,84.4,46.02,106.37,89.51,20,39.15,30.16,78.05,30.16,115.52,0,5.71-.43,12.41-1.33,20.49l-.08.72-.11.7c-4.9,30.64-16.31,55.76-33.97,74.88,6.86,8.54,14.27,18.33,22.11,29.24,13.88,19.33,18.18,26.93,20.38,32.4l.34.86.29.86c1.8,5.43,2.68,10.39,2.68,15.19,0,23.86-15.4,51.04-48.46,85.51-19.55,20.55-40.12,32.45-61.1,35.31l-24.62,3.52-40-31.54ZM207.27,210.86c.02,1.99.06,3.74.11,5.3,1.98-1.17,3.54-2.24,4.74-3.17l-.26-.15c-1.37-.81-2.9-1.47-4.59-1.98Z"/>
        <path class="uuid-c5729ae3-5e2c-4819-b180-c0fad02a437c" d="M556.01,527c-55.85,0-90.54-1.83-109.15-5.76-22.05-4.34-38.09-12.1-49.04-23.7l-.43-.46c-10.3-11.38-18.83-31.54-26.98-92.97-5.88-44.27-8.86-91.67-8.86-140.9,0-15.08.2-26.03.6-33.48,4.67-123.93,9.06-152.94,12.74-164.96l.2-.66.23-.65c3.65-10.23,10.4-19.67,20.06-28.04,10.32-9.03,29.36-19.11,91.84-24.96,15.82-1.61,34.33-2.43,55.02-2.43,41.06,0,80.18,3.65,116.28,10.86,22.74,4.25,35.56,8.88,44.23,15.97,9.95,8.14,16.3,20.69,20.59,40.67,3.15,13.25,4.75,27.62,4.75,42.72,0,37.32-8.7,62.15-26.61,75.92l-.31.24c-7.42,5.56-16.63,8.96-27.38,10.11-3.11.33-8.8.75-23.3.93,3.45,6.66,5.35,12.92,6.41,16.4,4.66,15.4,7.02,32.59,7.02,51.11,0,6.54-.23,11.79-.7,16-.92,12.5-2.55,22.34-5.09,30.3,19.61.17,26.73.56,30.43.87,12.71,1.06,22.65,4.39,30.38,10.17l.34.26c10.73,8.27,17.81,20.12,21.05,35.24,2.21,10.33,3.24,25.8,3.24,48.69,0,20.18-1.1,35.9-3.38,48.06-2.26,12.08-7,29.2-22.04,38.61-6.45,4.13-15.86,7.62-46.23,14.03-21.69,4.57-41.83,7.9-59.89,9.92-11.98,1.28-30.29,1.9-56.04,1.9Z"/>
        <path class="uuid-c5729ae3-5e2c-4819-b180-c0fad02a437c" d="M904.39,522.41c-38.98,0-63.98-7.41-78.69-23.31-11.71-12.5-18.89-33.75-23.28-68.86-3.51-28.11-7.43-83.88-11.64-165.78l-.48-6.82c-33.15-3.29-55.75-9.32-70.87-18.85-14.9-9.26-24.59-22.62-28.02-38.62-1.6-7.48-3.24-21.64-3.24-69.89,0-33.85.81-55.62,2.56-68.5,1.06-7.83,4.27-31.64,23.61-42.45,8.52-4.86,18.67-10.37,166.76-17.57,7.47-.41,19.35-.61,35.32-.61,74.77,0,130.76,4.1,166.42,12.18,23.6,5.14,40.75,18.67,49.62,39.12,6.77,15.65,9.92,38.92,9.92,73.24,0,26.7-2.98,50.83-8.86,71.73-7.17,25.49-17.52,42.54-31.65,52.13-6.71,4.66-15,7.6-43.17,11.57-9.18,1.3-17.92,2.33-26.16,3.1-.07,1.43-.13,2.98-.19,4.65v.28c-1.96,41.53-5.79,84.93-11.39,129.07-8.34,65.5-13.62,79.09-18.3,87.28-6.33,11.19-14.79,19.58-25.14,24.96-8.39,4.34-18.98,7.32-33.35,9.37l-.11.02c-12.47,1.71-25.81,2.58-39.66,2.58Z"/>
        <path class="uuid-c5729ae3-5e2c-4819-b180-c0fad02a437c" d="M1330.92,492.39c-16.13-12.9-27.76-21.05-35.92-26.19-2.89,11.32-6.76,18.82-12.39,24.46-10.24,10.21-23.56,12.84-64.8,12.84-56.4,0-91.59-8.13-110.75-25.59l-17.24-16.09-3.87-43.29c-.88-8.46-1.29-22.32-1.29-43.58,0-77.02,6.46-162.84,19.19-255.08,3.74-26.97,6.78-43.87,9.58-53.21,4.1-13.66,11.2-24.49,21.12-32.19,8.6-6.8,22.2-12.88,60.23-20.43,27.77-5.51,52.29-8.31,72.88-8.31h4.58c29.37,0,58.3,4.54,86,13.49,48.63,15.92,84.4,46.02,106.37,89.51,20,39.15,30.16,78.05,30.16,115.52,0,5.72-.43,12.42-1.33,20.49l-.08.74-.11.68c-4.9,30.64-16.31,55.76-33.97,74.88,6.87,8.54,14.28,18.34,22.11,29.24,13.88,19.33,18.18,26.93,20.38,32.4l.35.88.28.83c1.81,5.45,2.68,10.42,2.68,15.2,0,23.87-15.4,51.04-48.46,85.51-19.55,20.54-40.12,32.44-61.09,35.31l-24.62,3.52-40-31.54ZM1291.95,210.86c.02,1.99.06,3.74.11,5.3,1.98-1.17,3.53-2.24,4.74-3.17l-.26-.15c-1.37-.81-2.9-1.47-4.59-1.98Z"/>
        <path class="uuid-c5729ae3-5e2c-4819-b180-c0fad02a437c" d="M1691.68,527.57c-37.62,0-62.53-4.44-78.38-13.97-16.06-9.47-27.38-26-34.62-50.52l-.16-.54-.15-.59c-4.77-18.62-8.33-49.55-11.18-97.25l-2.21-36.62-14.11-14.85c-30.05-30.85-54.25-59.63-71.92-85.55-20.76-30.42-30.43-53.36-30.43-72.2,0-17.04,5.67-35.85,17.35-57.5,10.41-19.29,24.52-38.33,41.94-56.6l.08-.09c15.61-16.17,20.89-20.75,24.28-23.28,7.93-5.96,18.14-9.22,31.2-9.95l.84-.05h.66c.11,0,.23-.02.35-.04h.11c2.9-.37,5.12-.53,7.17-.53,10.99,0,21.71,4.41,33.74,13.87,6.93,5.46,18.75,15.66,37.22,32.12l.65.6c6.89,6.52,12.16,11.42,16.11,15l20.69,18.54c12.74-14.51,27-28.89,42.55-42.91,21.85-19.69,38.53-31.74,52.44-37.88,9.38-4.57,18.2-6.79,26.95-6.79,19.97,0,39.75,11.48,62.26,36.12,18.33,20.08,32.75,42.72,42.84,67.27l.23.55.2.54c6.02,16.57,8.7,28.21,8.7,37.81,0,18.77-9.89,41.72-33.06,76.73l-.28.42c-18.37,26.75-41.91,55.35-69.98,85.01l-10.32,10.98-1.02,15.62c-1.58,26.05-5.57,57.62-11.84,93.72-8.77,50.42-14.03,64.66-20.66,73.29-13.07,16.96-34.58,26.66-63.98,28.84l-1.11.08h-1.11s-.93.01-3.52.2c-3.58.25-6.26.37-8.51.37Z"/>
      </g>
      <g>
        <path class="uuid-8f98bd8e-cd3d-4ccd-b49d-27b41495c413" d="M68.97,58.48c5.73-4.58,21.58-9.46,47.56-14.61,25.97-5.16,48.32-7.74,67.04-7.74h4.58c26.36,0,51.95,4.01,76.78,12.03,40.87,13.38,70.48,38.2,88.81,74.49,17.95,35.15,26.93,69.14,26.93,101.99,0,4.58-.39,10.31-1.15,17.19-4.58,28.65-15.67,50.62-33.23,65.9l-12.61,11.46,12.61,14.33c8.02,9.55,16.9,21.11,26.64,34.67,9.74,13.56,15.37,22.26,16.9,26.07.76,2.29,1.15,4.21,1.15,5.73,0,15.28-13.38,36.87-40.11,64.75-14.9,15.66-29.42,24.44-43.55,26.36l-12.03,1.72-29.8-23.49c-34.38-27.5-57.69-41.26-69.91-41.26h-1.15c-3.06.38-5.16,1.63-6.3,3.72-1.15,2.1-2.49,7.36-4.01,15.76-1.92,12.22-4.21,19.67-6.88,22.35-2.68,2.67-17.19,4.01-43.55,4.01-47.37,0-77.55-5.93-90.53-17.76l-8.6-8.02-2.86-32.09c-.77-7.25-1.15-20.82-1.15-40.68,0-76.01,6.3-159.67,18.91-250.97,3.44-24.83,6.3-41.06,8.6-48.71,2.29-7.64,5.92-13.37,10.89-17.19ZM227.69,187.4c-8.41-4.96-18.34-7.45-29.8-7.45-8.79,0-14.52,1.72-17.19,5.16-1.92,1.92-2.87,9.74-2.87,23.49,0,14.52.95,24.07,2.87,28.65,2.67,9.55,8.21,14.33,16.62,14.33,4.58,0,11.46-2.09,20.63-6.3,18.71-9.54,28.08-21,28.08-34.38,0-4.2-1.15-8.02-3.44-11.46-3.82-4.58-8.79-8.6-14.9-12.03Z"/>
        <path class="uuid-8f98bd8e-cd3d-4ccd-b49d-27b41495c413" d="M490.69,40.71c14.9-1.52,32.28-2.29,52.14-2.29,39.34,0,76.21,3.44,110.59,10.31,16.42,3.06,26.73,6.3,30.94,9.74,4.2,3.44,7.64,11.46,10.31,24.07,2.67,11.08,4.01,23.12,4.01,36.1,0,27.13-4.97,44.51-14.9,52.14-3.06,2.29-7.26,3.72-12.61,4.3-5.35.57-17.96.86-37.82.86-25.6,0-43.55.57-53.86,1.72l-9.74,1.72v26.36l20.06,1.72c8.02.38,16.42,1.34,25.21,2.87,5.35,1.15,9.93,8.02,13.75,20.63,3.81,12.61,5.73,26.74,5.73,42.4,0,5.73-.2,10.13-.57,13.18-1.15,16.04-3.54,26.36-7.16,30.94-3.63,4.58-10.99,6.88-22.06,6.88-1.15,0-8.02.57-20.63,1.72l-11.46,1.72v21.77h61.31c28.27,0,45.84.29,52.72.86s11.84,2,14.9,4.3c4.96,3.82,8.31,9.74,10.03,17.76,1.72,8.02,2.58,22.16,2.58,42.4,0,36.29-3.82,56.73-11.46,61.31-3.44,2.29-15.57,5.63-36.39,10.03-20.83,4.39-39.82,7.54-57.01,9.45-10.7,1.15-28.27,1.72-52.72,1.72-52.72,0-87.1-1.72-103.14-5.16-15.67-3.06-26.74-8.02-33.23-14.9-7.26-8.02-13.75-33.62-19.48-76.78s-8.6-88.82-8.6-136.95c0-14.51.19-25.21.57-32.09,3.44-91.29,7.25-143.82,11.46-157.58,1.91-5.34,5.73-10.5,11.46-15.47,9.17-8.02,34.18-13.94,75.06-17.76Z"/>
        <path class="uuid-8f98bd8e-cd3d-4ccd-b49d-27b41495c413" d="M883.19,32.12c6.88-.38,18.14-.57,33.81-.57,72.96,0,126.25,3.82,159.87,11.46,14.13,3.06,23.68,10.31,28.65,21.77,4.96,11.46,7.45,31.9,7.45,61.31,0,24.07-2.58,45.27-7.74,63.6-5.16,18.34-11.75,30.18-19.77,35.53-2.68,1.92-12.8,4.11-30.37,6.59-17.58,2.49-33.05,3.92-46.41,4.3-3.06,0-4.97,10.7-5.73,32.09-1.92,40.88-5.64,83.08-11.17,126.63-5.54,43.55-10.41,68.95-14.61,76.21-3.44,6.11-7.74,10.5-12.89,13.18-5.16,2.67-13.09,4.77-23.78,6.3-11.08,1.52-22.92,2.29-35.53,2.29-29.42,0-48.33-4.58-56.73-13.75-6.88-7.26-12.03-24.64-15.47-52.14s-7.26-82.13-11.46-163.88l-2.29-32.66-20.05-1.72c-30.57-2.67-51.57-7.64-63.03-14.9-8.02-4.96-12.89-11.46-14.61-19.48-1.72-8.02-2.58-29.22-2.58-63.6,0-31.7.76-53.19,2.29-64.46,1.52-11.26,4.39-18.05,8.6-20.34,8.02-4.58,59.21-9.17,153.56-13.75Z"/>
        <path class="uuid-8f98bd8e-cd3d-4ccd-b49d-27b41495c413" d="M1153.64,58.48c5.73-4.58,21.58-9.46,47.56-14.61,25.97-5.16,48.32-7.74,67.04-7.74h4.58c26.36,0,51.95,4.01,76.78,12.03,40.87,13.38,70.48,38.2,88.81,74.49,17.95,35.15,26.93,69.14,26.93,101.99,0,4.58-.38,10.31-1.15,17.19-4.58,28.65-15.67,50.62-33.23,65.9l-12.61,11.46,12.61,14.33c8.02,9.55,16.9,21.11,26.64,34.67,9.74,13.56,15.37,22.26,16.9,26.07.76,2.29,1.15,4.21,1.15,5.73,0,15.28-13.38,36.87-40.11,64.75-14.9,15.66-29.42,24.44-43.55,26.36l-12.03,1.72-29.79-23.49c-34.38-27.5-57.69-41.26-69.91-41.26h-1.15c-3.06.38-5.16,1.63-6.3,3.72-1.15,2.1-2.49,7.36-4.01,15.76-1.92,12.22-4.21,19.67-6.88,22.35-2.68,2.67-17.19,4.01-43.55,4.01-47.37,0-77.55-5.93-90.53-17.76l-8.59-8.02-2.87-32.09c-.77-7.25-1.15-20.82-1.15-40.68,0-76.01,6.3-159.67,18.91-250.97,3.44-24.83,6.3-41.06,8.6-48.71,2.29-7.64,5.92-13.37,10.89-17.19ZM1312.36,187.4c-8.41-4.96-18.34-7.45-29.8-7.45-8.79,0-14.52,1.72-17.19,5.16-1.92,1.92-2.87,9.74-2.87,23.49,0,14.52.95,24.07,2.87,28.65,2.67,9.55,8.21,14.33,16.62,14.33,4.58,0,11.46-2.09,20.63-6.3,18.71-9.54,28.08-21,28.08-34.38,0-4.2-1.15-8.02-3.44-11.46-3.82-4.58-8.79-8.6-14.9-12.03Z"/>
        <path class="uuid-8f98bd8e-cd3d-4ccd-b49d-27b41495c413" d="M1789.1,34.41c5.35-2.67,10.12-4.01,14.33-4.01,10.69,0,24.07,8.79,40.11,26.36,16.04,17.58,28.45,37.06,37.25,58.45,4.58,12.61,6.88,21.77,6.88,27.5,0,11.84-9.37,31.9-28.08,60.17-17.58,25.6-39.92,52.72-67.04,81.37l-17.76,18.91-1.72,26.36c-1.53,25.21-5.35,55.39-11.46,90.53-6.11,35.14-11.08,55.2-14.9,60.17-7.65,9.93-21.77,15.66-42.4,17.19-1.15,0-3.06.09-5.73.29-2.68.19-4.78.29-6.3.29-31.33,0-52.34-3.25-63.03-9.74-9.17-5.35-16.24-16.43-21.2-33.23-4.21-16.42-7.65-46.99-10.31-91.68l-2.86-47.56-21.77-22.92c-29.04-29.8-51.96-57.01-68.76-81.65-16.81-24.64-25.21-43.06-25.21-55.29s4.58-26.26,13.75-43.26c9.17-16.99,21.58-33.71,37.25-50.14,10.69-11.08,17.57-17.76,20.63-20.05,3.05-2.29,8.02-3.63,14.9-4.01,1.15,0,2.48-.09,4.01-.29,1.52-.19,2.67-.29,3.44-.29,3.81,0,8.88,2.49,15.18,7.45,6.3,4.97,18.24,15.28,35.81,30.94,6.88,6.5,12.41,11.66,16.62,15.47l44.12,39.54,8.59-10.89c14.51-17.95,31.42-35.62,50.71-53,19.29-17.38,34.28-28.36,44.98-32.95Z"/>
      </g>
      <path class="uuid-c5729ae3-5e2c-4819-b180-c0fad02a437c" d="M88.66,95.17c9.68-7.93,22.72-10.72,34.82-12.36,14.75-2,29.74-2.87,44.62-3.3,31.02-.89,62.12,1.07,92.76,5.99,4.53.73,9.15-1.17,10.46-5.94,1.11-4.05-1.38-9.72-5.94-10.46-33.45-5.37-67.31-7.71-101.17-6.47-16.17.59-32.48,1.7-48.47,4.26-14.33,2.29-27.78,6.98-39.1,16.25-3.55,2.91-3.02,9,0,12.02,3.51,3.51,8.46,2.92,12.02,0h0Z"/>
      <path class="uuid-c5729ae3-5e2c-4819-b180-c0fad02a437c" d="M288.57,96.32c9.56,6.17,17.48,15.16,21.91,25.71,1.78,4.23,5.62,7.27,10.46,5.94,3.99-1.1,7.73-6.2,5.94-10.46-6.25-14.89-16.1-27.08-29.72-35.87-9.22-5.95-17.75,8.76-8.58,14.68h0Z"/>
      <path class="uuid-c5729ae3-5e2c-4819-b180-c0fad02a437c" d="M448.89,107.44c-1.82-11.92,12.48-18.97,21.78-21.03,14.62-3.24,30.59-2.6,45.5-3.08,32.23-1.04,64.48-1,96.7.08,10.94.36,10.93-16.64,0-17-36.83-1.23-73.69-1.1-110.51.44-16.78.7-35.35.18-50.54,8.42-13.47,7.3-21.66,21.42-19.33,36.7.69,4.54,6.4,7.05,10.46,5.94,4.85-1.33,6.63-5.9,5.94-10.46h0Z"/>
      <path class="uuid-c5729ae3-5e2c-4819-b180-c0fad02a437c" d="M654.74,92.03c10.94,0,10.96-17,0-17s-10.96,17,0,17h0Z"/>
      <path class="uuid-c5729ae3-5e2c-4819-b180-c0fad02a437c" d="M755.47,90.11c38.18-5.52,76.75-8.01,115.29-9.31,37.43-1.26,75.17-2.51,112.61-1.42,19.92.58,39.62,2.98,58.28,10.32,4.27,1.68,9.33-1.84,10.46-5.94,1.33-4.82-1.65-8.77-5.94-10.46-34.6-13.61-73.02-11.24-109.46-10.83-39.68.45-79.39,1.19-118.99,4.06-22.33,1.62-44.6,3.98-66.76,7.18-4.55.66-7.04,6.43-5.94,10.46,1.34,4.88,5.89,6.6,10.46,5.94h0Z"/>
      <path class="uuid-c5729ae3-5e2c-4819-b180-c0fad02a437c" d="M1079.83,106.99c10.94,0,10.96-17,0-17s-10.96,17,0,17h0Z"/>
      <path class="uuid-c5729ae3-5e2c-4819-b180-c0fad02a437c" d="M1180.3,126.25c-3.59-24.62,19.33-45.99,43.54-41.51,4.51.83,9.17-1.24,10.46-5.94,1.14-4.13-1.4-9.62-5.94-10.46-17.57-3.25-35.9,1.47-48.91,13.99-13.06,12.57-18.11,30.79-15.54,48.43.66,4.55,6.42,7.04,10.46,5.94,4.88-1.34,6.6-5.9,5.94-10.46h0Z"/>
      <path class="uuid-c5729ae3-5e2c-4819-b180-c0fad02a437c" d="M1273.81,86.5c42.67-7.14,87.9,7.42,118.84,37.47,7.85,7.63,19.89-4.38,12.02-12.02-35.61-34.58-86.55-50.02-135.38-41.85-4.53.76-7.06,6.36-5.94,10.46,1.32,4.8,5.91,6.7,10.46,5.94h0Z"/>
      <path class="uuid-c5729ae3-5e2c-4819-b180-c0fad02a437c" d="M1581.91,105c20.15,11.34,39.32,24.33,57.16,39.06,3.54,2.92,8.56,3.46,12.02,0,3.01-3.01,3.56-9.08,0-12.02-18.96-15.65-39.16-29.66-60.6-41.72-9.55-5.37-18.13,9.31-8.58,14.68h0Z"/>
      <path class="uuid-c5729ae3-5e2c-4819-b180-c0fad02a437c" d="M1798.92,78.66c24.57,4.17,37.58,28.99,47.89,49.17,4.98,9.75,19.65,1.15,14.68-8.58-12.29-24.07-28.99-52.05-58.05-56.99-4.52-.77-9.15,1.2-10.46,5.94-1.12,4.08,1.39,9.68,5.94,10.46h0Z"/>
    </g>
  </g>
</svg>