<?xml version="1.0" encoding="UTF-8"?>
<svg id="uuid-b98b6aa4-fe81-4338-b3fd-9772e51ad7db" data-name="Layer 2" xmlns="http://www.w3.org/2000/svg" xmlns:xlink="http://www.w3.org/1999/xlink" viewBox="0 0 1858.06 1766.55">
  <defs>
    <style>
      .uuid-5487ae9c-9d46-4d04-b5ad-09ad45630459 {
        fill: url(#uuid-7623dc4a-07f9-46e6-b0fa-241e6f217792);
      }

      .uuid-5487ae9c-9d46-4d04-b5ad-09ad45630459, .uuid-a668cc5a-b7ee-4fbf-a545-ca63dfee22d0, .uuid-9483c085-53ec-4ef7-a6ef-0696746631e0, .uuid-e0a05637-bc0c-4354-88a4-3eacfaaefc89 {
        stroke-width: 0px;
      }

      .uuid-a668cc5a-b7ee-4fbf-a545-ca63dfee22d0 {
        fill: #f2f2f2;
        opacity: .32;
      }

      .uuid-34489065-48a5-4bc6-bd37-d06e4e4c8c4b {
        opacity: .58;
      }

      .uuid-676fa2eb-29c1-4171-878a-6d5f8d708b63 {
        fill: none;
        opacity: .73;
        stroke: #fafafa;
        stroke-miterlimit: 10;
        stroke-width: 31.6px;
      }

      .uuid-9483c085-53ec-4ef7-a6ef-0696746631e0 {
        fill: #fff;
      }

      .uuid-e0a05637-bc0c-4354-88a4-3eacfaaefc89 {
        fill: #fafafa;
      }
    </style>
    <radialGradient id="uuid-7623dc4a-07f9-46e6-b0fa-241e6f217792" cx="929.6" cy="2273.01" fx="854.36" fy="2322.51" r="1183.88" gradientUnits="userSpaceOnUse">
      <stop offset=".17" stop-color="#fff"/>
      <stop offset=".25" stop-color="#fff5e9"/>
      <stop offset="1" stop-color="#ff931e"/>
    </radialGradient>
  </defs>
  <g id="uuid-78633ded-d304-4c4f-9c1a-a3d86b35e503" data-name="Layer 1">
    <circle class="uuid-676fa2eb-29c1-4171-878a-6d5f8d708b63" cx="949.43" cy="807.3" r="791.5"/>
    <path class="uuid-a668cc5a-b7ee-4fbf-a545-ca63dfee22d0" d="M1547.33,558.1c-65.96,154.87-226.42,264.2-413.9,264.2-246.32,0-446-188.71-446-421.5,0-65.13,15.63-126.8,43.54-181.86-259.94,90.35-446.54,337.78-446.54,628.86,0,367.55,297.51,665.5,664.5,665.5s664.5-297.95,664.5-665.5c0-103.84-23.75-202.12-66.1-289.7Z"/>
    <g class="uuid-34489065-48a5-4bc6-bd37-d06e4e4c8c4b">
      <path class="uuid-e0a05637-bc0c-4354-88a4-3eacfaaefc89" d="M297.93,1241c269.55,2.21,548.84-108.14,780.43-240.1,89.66-51.73,175.92-109.5,256.76-174.14,80.13-64.41,156.39-135.39,217.92-217.95,19.99-27.32,38.23-55.85,52.56-86.47,13.56-29.38,23.99-61.46,23.52-93.54,0,0,31.6,0,31.6,0-2.65,73.71-44.23,138.81-86.86,195.68-86.35,110.57-195.43,200.76-309.07,281.84-199.64,139.79-420.67,251.62-655.66,317.89-101.47,27.96-205.41,46.51-311.21,48.38,0,0,0-31.6,0-31.6h0Z"/>
      <path class="uuid-e0a05637-bc0c-4354-88a4-3eacfaaefc89" d="M1229.36,1038.19c106.79-77.05,212.51-157.59,305.63-250.72,58.19-58.82,129.88-137.8,149.35-219.49,2.14-9.82,3.54-20.21,3.48-30.18,0,0,26.22,0,26.22,0-.2,19.98-3.96,39.51-9.94,58.46-4.69,14.63-10.71,29.07-17.44,42.88-83.1,164.7-273.09,309.88-434.27,394.27-6.58,3.43-13.23,6.74-19.89,10,0,0-3.14-5.22-3.14-5.22h0Z"/>
    </g>
    <g class="uuid-34489065-48a5-4bc6-bd37-d06e4e4c8c4b">
      <path class="uuid-e0a05637-bc0c-4354-88a4-3eacfaaefc89" d="M367.93,1328.8c153.54-5.37,304.48-42.83,449.09-93.9,48.53-17.12,96.6-36.14,144-56.26,63.36-26.94,125.78-56.42,187.84-87.24-201.74,134.99-432.52,236.75-675.57,263.53-34.96,3.35-70.17,5.03-105.36,3.88,0,0,0-30,0-30h0Z"/>
    </g>
    <g id="uuid-7ef0aec8-e83b-45d9-b478-78a8328788ed" data-name="Layer 2">
      <g>
        <path class="uuid-9483c085-53ec-4ef7-a6ef-0696746631e0" d="M227.11,1760.82c-42.27,0-83.79-8.97-123.4-26.68l-.74-.34c-23.04-11.05-43.96-28.07-62.19-50.56-18.18-22.44-30.64-46.79-37.02-72.35l-.14-.6c-3.27-14.35-3.62-17.42-3.62-21,0-8.04,2.77-16.11,8.48-24.66l.52-.76.11-.15c8.77-12.16,23.46-21.65,46.24-29.86,10.31-3.72,20.35-6.47,30.05-8.25-7.25-5.52-14.02-11.45-20.28-17.78-23.47-23.71-36.11-53.13-37.58-87.43l-.03-.64v-7.52c0-38.48,13.38-73.72,39.77-104.77,12.42-14.79,30.25-28.23,52.99-39.94,21.95-11.3,44.29-18.84,66.39-22.4,10.4-1.79,20.54-2.7,30.15-2.7,10.34,0,22.34,1.35,35.68,4.02,22.81,4.57,44.5,13.55,64.48,26.71,16.88,11.11,32.94,25.68,47.73,43.29,18.33,21.85,26.51,38.84,26.51,55.1,0,22.71-16.84,38.04-30.96,46.9-12.31,7.72-27.04,13.73-43.89,17.9.85.52,1.68,1.05,2.5,1.57l.1.07c26.18,16.87,47.2,37.72,62.48,61.98,15.99,25.41,24.1,52.18,24.1,79.59,0,6.2-.26,10.91-.82,14.76-4.07,36.97-16.34,69.68-36.49,97.21-20.75,28.35-47.9,48.59-80.71,60.14l-.49.17c-17.91,5.96-38.06,8.99-59.9,8.99Z"/>
        <path class="uuid-9483c085-53ec-4ef7-a6ef-0696746631e0" d="M582.37,1763.12c-28.59,0-45.66-.3-53.71-.96-9.45-.77-20.36-3.17-33.34-7.34-58.13-18.22-99.5-53.08-122.95-103.62-15.54-33.68-23.42-73.39-23.42-118.06s7.25-83.23,21.54-119.79c17.38-44.77,46.76-81.78,87.31-109.97,39.43-27.41,87.41-44.92,142.61-52.05,6.29-.99,14.22-1.45,24.93-1.45,16.89,0,27.71,1.68,36.07,5.63,18.75,8.39,33.77,24.34,44.64,47.39,9.7,20.59,14.61,43.5,14.61,68.09v8.36l-.06.91c-1.56,25.43-9.65,46.33-24.05,62.13-6.47,7.59-14.2,13.58-22.98,17.8-6.35,3.06-16.78,7.05-32.81,12.52-21.93,7.54-39.89,15.87-53.36,24.74-6.69,4.4-10.32,7.69-12.2,9.7.16.37.33.78.52,1.21,3.42,6.37,20.31,13.69,57.07,13.69h12.03c16.22,0,27.45,1.75,36.4,5.68,8.7,3.83,17.33,10.46,27.2,20.87l.53.57c15.11,16.79,23.89,43.98,27.64,85.57,2.41,26.66,2.41,27.77,2.41,29.62,0,9.46-1.71,18.93-5.09,28.17-9.71,29.74-26.4,49.64-49.62,59.17-19,7.79-51.39,11.42-101.93,11.42Z"/>
        <path class="uuid-9483c085-53ec-4ef7-a6ef-0696746631e0" d="M927.89,1763.69c-39.64,0-77.5-9.6-112.53-28.53-35.03-18.93-64.4-46.27-87.31-81.26-24.33-36.72-39.04-78.03-43.73-122.79l-.09-.97c-.81-11.27-1.22-20.29-1.22-26.79,0-64.67,20.78-122.16,61.77-170.87,41.3-49.08,93.7-77.75,155.75-85.21,6.87-.95,15.58-1.4,27.36-1.4,46.62,0,90.71,13.41,131.05,39.87,36.37,23.82,64.81,55.66,84.52,94.63,19.44,38.46,29.3,80.03,29.3,123.55,0,47.69-11.85,93.43-35.23,135.93l-.24.43c-8.87,15.52-22.56,32.79-40.69,51.35-18.44,18.86-35.7,32.63-51.3,40.95-37.5,20.65-77.01,31.12-117.42,31.12ZM925.59,1513.45c3.71,0,4.58-.91,5.15-1.52.58-.61,2.1-2.21,2.1-8.02,0-6.83-2.24-9.3-4.62-11.1-.1-.04-.52-.15-1.48-.15-1.77,0-3.6,0-6.84,6.64l-.24.49-.28.52c-.73,1.36-1.03,2.58-1.03,4.17,0,2.23,3.07,5.54,4.38,6.85l.4.4.43.46c.43.47.82.88,1.17,1.24.27,0,.56,0,.86,0Z"/>
        <path class="uuid-9483c085-53ec-4ef7-a6ef-0696746631e0" d="M1360.72,1731.95c-16.13-12.9-27.76-21.05-35.92-26.19-2.89,11.32-6.76,18.82-12.39,24.46-10.25,10.21-23.56,12.84-64.8,12.84-56.41,0-91.59-8.13-110.75-25.59l-17.24-16.09-3.87-43.29c-.88-8.46-1.29-22.32-1.29-43.58,0-77.03,6.46-162.85,19.19-255.08,3.73-26.97,6.78-43.88,9.58-53.21,4.1-13.66,11.2-24.49,21.12-32.19,8.6-6.79,22.2-12.88,60.22-20.42,27.77-5.51,52.29-8.31,72.88-8.31h4.58c29.36,0,58.3,4.54,86,13.49,48.63,15.92,84.4,46.02,106.37,89.51,20,39.15,30.16,78.05,30.16,115.52,0,5.72-.43,12.42-1.33,20.49l-.08.74-.12.76c-4.89,30.56-16.29,55.67-33.95,74.79,6.86,8.53,14.27,18.33,22.11,29.24,13.88,19.33,18.18,26.93,20.38,32.4l.34.85.28.85c1.81,5.44,2.68,10.41,2.68,15.21,0,23.86-15.4,51.03-48.46,85.51-19.55,20.55-40.13,32.45-61.1,35.31l-24.61,3.52-40-31.54ZM1321.75,1450.42c.02,1.98.06,3.74.11,5.29,1.98-1.17,3.53-2.23,4.74-3.17l-.25-.15c-1.37-.81-2.91-1.47-4.6-1.98Z"/>
        <path class="uuid-9483c085-53ec-4ef7-a6ef-0696746631e0" d="M1670.48,1766.55c-55.85,0-90.55-1.83-109.15-5.76-22.04-4.34-38.09-12.1-49.04-23.7l-.43-.46c-10.3-11.38-18.82-31.54-26.98-92.97-5.88-44.26-8.86-91.66-8.86-140.89,0-15.09.2-26.05.6-33.48,4.67-123.92,9.06-152.93,12.74-164.96l.21-.69.24-.66c3.64-10.2,10.39-19.64,20.04-28.01,10.32-9.03,29.37-19.11,91.85-24.96,15.82-1.61,34.33-2.43,55.02-2.43,41.06,0,80.18,3.65,116.29,10.86,22.74,4.25,35.56,8.88,44.23,15.97,9.95,8.14,16.3,20.69,20.59,40.67,3.15,13.25,4.75,27.62,4.75,42.72,0,37.32-8.7,62.15-26.61,75.92l-.25.19c-7.48,5.6-16.7,9-27.44,10.16-3.11.33-8.8.75-23.3.93,3.45,6.66,5.35,12.92,6.41,16.4,4.66,15.4,7.02,32.59,7.02,51.11,0,6.54-.23,11.78-.7,16-.93,12.5-2.55,22.34-5.09,30.3,19.61.17,26.73.56,30.43.87,12.71,1.06,22.65,4.39,30.38,10.18l.28.21c10.79,8.31,17.87,20.17,21.11,35.28,2.21,10.33,3.24,25.8,3.24,48.69,0,20.18-1.1,35.9-3.38,48.06-2.26,12.08-7,29.2-22.04,38.61-6.45,4.13-15.86,7.61-46.23,14.03-21.69,4.57-41.83,7.9-59.89,9.92-11.98,1.28-30.29,1.9-56.04,1.9Z"/>
      </g>
      <g>
        <path class="uuid-5487ae9c-9d46-4d04-b5ad-09ad45630459" d="M192.16,1275.11c8.78-1.52,17.19-2.29,25.21-2.29s18.34,1.15,29.8,3.44c19.1,3.82,37.05,11.27,53.86,22.35,14.51,9.55,28.26,22.06,41.26,37.53,12.98,15.47,19.48,27.41,19.48,35.81,0,7.26-5.64,14.42-16.9,21.49-11.27,7.07-25.31,12.32-42.12,15.76-8.41,1.53-13.75,2.29-16.04,2.29-7.65,0-19.68-4.01-36.1-12.03-14.9-7.25-27.13-10.89-36.67-10.89-4.21,0-8.22.96-12.03,2.87-4.21,3.06-6.3,6.12-6.3,9.17,0,9.55,12.03,19.11,36.1,28.65,30.94,12.23,54.81,23.69,71.62,34.38,22.53,14.52,40.3,32.09,53.29,52.72,12.98,20.63,19.48,41.83,19.48,63.6,0,4.97-.2,8.59-.57,10.89-3.44,32.09-13.75,59.88-30.94,83.37-17.19,23.49-39.35,40.01-66.47,49.56-14.9,4.96-31.71,7.45-50.42,7.45-38.2,0-75.26-8.02-111.16-24.07-19.11-9.17-36.39-23.31-51.86-42.4-15.47-19.1-25.88-39.34-31.23-60.74-1.92-8.4-2.86-13.18-2.86-14.33,0-1.91,1.15-4.58,3.44-8.02,4.96-6.88,15.66-13.27,32.09-19.2,16.42-5.92,31.52-8.88,45.27-8.88,10.69,0,18.81,1.06,24.35,3.15,5.53,2.1,13.65,6.97,24.35,14.61,20.24,15.28,35.33,22.92,45.27,22.92,4.58,0,9.17-2,13.75-6.02,4.58-4.01,6.88-8.11,6.88-12.32,0-6.49-6.21-13.84-18.62-22.06-12.42-8.21-29.51-16.13-51.28-23.78-27.89-10.31-50.91-24.64-69.05-42.97-18.15-18.34-27.79-40.87-28.94-67.61v-6.88c0-31.32,10.89-59.78,32.66-85.38,9.93-11.84,24.54-22.72,43.83-32.66,19.28-9.93,38.48-16.42,57.59-19.48Z"/>
        <path class="uuid-5487ae9c-9d46-4d04-b5ad-09ad45630459" d="M605.29,1281.42c4.58-.76,11.46-1.15,20.63-1.15,11.84,0,19.67.96,23.49,2.87,12.22,5.35,22.25,16.33,30.08,32.95,7.82,16.62,11.75,35.05,11.75,55.29v7.45c-1.15,18.72-6.69,33.43-16.62,44.12-3.82,4.58-8.31,8.12-13.47,10.6-5.16,2.49-15,6.21-29.51,11.17-24.45,8.41-44.51,17.76-60.17,28.08-15.67,10.31-24.45,20.05-26.36,29.22,0,.39-.1,1.06-.29,2.01-.2.96-.29,1.63-.29,2.01,0,3.44,1.52,8.59,4.58,15.47,9.93,20.63,38.01,30.94,84.23,30.94h12.03c11.46,0,19.57,1.06,24.35,3.15,4.77,2.1,10.6,6.79,17.48,14.04,10.31,11.46,16.99,34.19,20.06,68.19,1.52,16.81,2.29,25.78,2.29,26.93,0,6.12-1.15,12.23-3.44,18.34-6.88,21.39-17.76,35.14-32.66,41.26-14.9,6.11-45.08,9.17-90.53,9.17-27.13,0-44.22-.29-51.28-.86-7.07-.57-15.95-2.58-26.64-6.02-50.05-15.67-85-44.88-104.86-87.67-13.75-29.8-20.63-64.94-20.63-105.43s6.49-75.64,19.48-108.87c15.27-39.34,40.77-71.43,76.5-96.26,35.71-24.83,78.98-40.49,129.78-46.99Z"/>
        <path class="uuid-5487ae9c-9d46-4d04-b5ad-09ad45630459" d="M904.97,1277.41c5.34-.76,13.18-1.15,23.49-1.15,40.87,0,79.07,11.66,114.6,34.95,32.09,21.01,56.82,48.71,74.2,83.08,17.38,34.38,26.07,71.05,26.07,110.02,0,42.79-10.51,83.28-31.51,121.48-7.65,13.38-19.68,28.46-36.1,45.27-16.43,16.81-31.14,28.65-44.12,35.53-33.23,18.34-67.61,27.5-103.14,27.5s-67.52-8.31-98.27-24.93c-30.75-16.62-56.25-40.4-76.5-71.34-21.77-32.85-34.76-69.33-38.96-109.44-.77-10.69-1.15-18.91-1.15-24.64,0-57.68,18.24-108.2,54.72-151.56,36.48-43.35,82.03-68.28,136.66-74.78ZM946.22,1468.79c-5.35-3.81-11.66-5.73-18.91-5.73-14.9,0-26.17,7.83-33.81,23.49-3.06,5.73-4.58,11.84-4.58,18.34,0,9.94,4.39,19.29,13.18,28.08,4.58,4.97,8.21,8.02,10.89,9.17,2.67,1.15,7.06,1.72,13.18,1.72,11.08,0,20.05-3.63,26.93-10.89,6.88-7.25,10.31-16.8,10.31-28.65,0-15.27-5.73-27.12-17.19-35.53Z"/>
        <path class="uuid-5487ae9c-9d46-4d04-b5ad-09ad45630459" d="M1183.44,1298.03c5.73-4.58,21.58-9.46,47.56-14.61,25.97-5.16,48.32-7.74,67.04-7.74h4.58c26.36,0,51.95,4.01,76.78,12.03,40.87,13.38,70.48,38.2,88.81,74.49,17.95,35.15,26.93,69.14,26.93,101.99,0,4.58-.38,10.31-1.15,17.19-4.58,28.65-15.67,50.62-33.23,65.9l-12.61,11.46,12.61,14.33c8.02,9.55,16.9,21.11,26.64,34.67,9.74,13.56,15.37,22.26,16.9,26.07.76,2.29,1.14,4.21,1.14,5.73,0,15.28-13.38,36.87-40.11,64.75-14.9,15.66-29.42,24.44-43.55,26.36l-12.03,1.72-29.8-23.49c-34.38-27.5-57.69-41.26-69.91-41.26h-1.15c-3.06.38-5.16,1.63-6.3,3.72-1.14,2.1-2.49,7.36-4.01,15.76-1.92,12.22-4.21,19.67-6.88,22.35-2.68,2.67-17.19,4.01-43.55,4.01-47.37,0-77.55-5.93-90.53-17.76l-8.59-8.02-2.86-32.09c-.77-7.25-1.15-20.82-1.15-40.68,0-76.01,6.3-159.67,18.91-250.97,3.44-24.83,6.3-41.06,8.6-48.71,2.29-7.64,5.92-13.37,10.89-17.19ZM1342.16,1426.96c-8.41-4.96-18.34-7.45-29.79-7.45-8.79,0-14.52,1.72-17.19,5.16-1.92,1.92-2.86,9.74-2.86,23.49,0,14.52.95,24.07,2.86,28.65,2.67,9.55,8.21,14.33,16.62,14.33,4.58,0,11.46-2.09,20.63-6.3,18.71-9.54,28.08-21,28.08-34.38,0-4.2-1.14-8.02-3.44-11.46-3.82-4.58-8.79-8.6-14.9-12.03Z"/>
        <path class="uuid-5487ae9c-9d46-4d04-b5ad-09ad45630459" d="M1605.16,1280.27c14.9-1.52,32.28-2.29,52.14-2.29,39.34,0,76.21,3.44,110.59,10.31,16.42,3.06,26.73,6.3,30.94,9.74,4.2,3.44,7.64,11.46,10.31,24.07,2.67,11.08,4.01,23.12,4.01,36.1,0,27.13-4.97,44.51-14.9,52.14-3.06,2.29-7.26,3.72-12.61,4.3-5.35.57-17.96.86-37.82.86-25.6,0-43.55.57-53.86,1.72l-9.74,1.72v26.36l20.05,1.72c8.02.38,16.42,1.34,25.21,2.87,5.34,1.15,9.93,8.02,13.75,20.63,3.81,12.61,5.73,26.74,5.73,42.4,0,5.73-.2,10.13-.57,13.18-1.15,16.04-3.54,26.36-7.16,30.94-3.64,4.58-10.99,6.88-22.06,6.88-1.15,0-8.02.57-20.63,1.72l-11.46,1.72v21.77h61.31c28.26,0,45.84.29,52.72.86s11.84,2,14.9,4.3c4.96,3.82,8.31,9.74,10.03,17.76,1.72,8.02,2.58,22.16,2.58,42.4,0,36.29-3.82,56.73-11.46,61.31-3.44,2.29-15.57,5.63-36.39,10.03-20.82,4.39-39.82,7.54-57.01,9.45-10.7,1.15-28.27,1.72-52.72,1.72-52.72,0-87.1-1.72-103.14-5.16-15.67-3.06-26.74-8.02-33.23-14.9-7.26-8.02-13.75-33.62-19.48-76.78-5.73-43.16-8.59-88.82-8.59-136.95,0-14.51.19-25.21.57-32.09,3.44-91.29,7.25-143.82,11.46-157.58,1.91-5.34,5.73-10.5,11.46-15.47,9.17-8.02,34.18-13.94,75.06-17.76Z"/>
      </g>
      <path class="uuid-9483c085-53ec-4ef7-a6ef-0696746631e0" d="M124.83,1367.93c5.24-38.81,53.84-49.48,86.3-50.76,10.9-.43,10.96-17.43,0-17-39.53,1.56-96.38,16.46-102.7,63.24-.61,4.54,1.09,9.12,5.94,10.46,3.96,1.09,9.84-1.36,10.46-5.94h0Z"/>
      <path class="uuid-9483c085-53ec-4ef7-a6ef-0696746631e0" d="M262.19,1323.62c10.94,0,10.96-17,0-17s-10.96,17,0,17h0Z"/>
      <path class="uuid-9483c085-53ec-4ef7-a6ef-0696746631e0" d="M576.6,1327.28c19.75-6.03,51.63-15.26,64.29,8.03,5.23,9.61,19.91,1.04,14.68-8.58-6.82-12.54-20.02-20.36-33.9-22.6-16.93-2.74-33.51,1.85-49.59,6.76-10.43,3.19-5.99,19.6,4.52,16.39h0Z"/>
      <path class="uuid-9483c085-53ec-4ef7-a6ef-0696746631e0" d="M899.32,1323.62c28.6-1.56,57.39,3.59,84.11,13.75,24.8,9.43,49.81,24.45,65.54,46.32,8.46,11.76,14.25,25.3,15.64,39.8.44,4.57,3.59,8.5,8.5,8.5,4.26,0,8.94-3.9,8.5-8.5-6.21-64.97-72.35-101.69-130.36-112.93-17.07-3.31-34.55-4.89-51.93-3.94-10.88.59-10.95,17.6,0,17h0Z"/>
      <path class="uuid-9483c085-53ec-4ef7-a6ef-0696746631e0" d="M1215.64,1371.47c-1.1-8.41-2.57-17.71.17-25.94,2.23-6.7,7.96-10.89,14.37-13.3,16.29-6.14,35.52-6.85,52.73-7.06,37.68-.46,75.68,7.27,109.97,23.01,9.21,4.23,19.19,8.68,27.32,14.82,8.38,6.34,7.59,15.54,6.11,25-.71,4.53,1.16,9.14,5.94,10.46,4.04,1.11,9.74-1.37,10.46-5.94,1.69-10.75,3.13-22.19-2.4-32.15s-15.67-15.04-24.98-20.01c-19.32-10.31-39.98-18.32-61.21-23.7-21.53-5.46-43.83-8.35-66.04-8.51-10.88-.08-21.77.52-32.58,1.8-9.99,1.18-20.33,2.38-29.82,5.88-10.22,3.77-19.64,10.08-24.31,20.28-5.12,11.21-4.27,23.46-2.72,35.36.59,4.55,3.48,8.5,8.5,8.5,4.13,0,9.1-3.92,8.5-8.5h0Z"/>
      <path class="uuid-9483c085-53ec-4ef7-a6ef-0696746631e0" d="M1604.3,1320.88c32.62-6.8,66-9.33,99.27-7.62,16.25.83,32.42,2.66,48.43,5.58,4.34.79,8.67,1.65,12.98,2.59,3.02.66,8.27.78,10.73,2.51,1.45,1.02.85-.43,1.37,2.12.34,1.68.49,3.42.72,5.11.6,4.34,1.2,8.69,1.8,13.03s6.45,7.04,10.46,5.94c4.9-1.35,6.57-5.89,5.94-10.46-1.1-7.94-.72-18.42-5.36-25.29-5.12-7.6-16.67-8.45-24.84-10.14-18.02-3.73-36.32-6.25-54.68-7.54-37.26-2.62-74.79.15-111.34,7.77-10.7,2.23-6.17,18.62,4.52,16.39h0Z"/>
      <path class="uuid-9483c085-53ec-4ef7-a6ef-0696746631e0" d="M1787.59,1396.26c10.94,0,10.96-17,0-17s-10.96,17,0,17h0Z"/>
      <path class="uuid-9483c085-53ec-4ef7-a6ef-0696746631e0" d="M854.8,1320.56c-20.1,10.4-37.94,25-52.01,42.74-2.85,3.59-3.51,8.51,0,12.02,2.96,2.96,9.15,3.62,12.02,0,13.27-16.74,29.59-30.26,48.57-40.08,9.72-5.03,1.13-19.7-8.58-14.68h0Z"/>
    </g>
  </g>
</svg>