<svg id="Layer_1" data-name="Layer 1" xmlns="http://www.w3.org/2000/svg" viewBox="0 0 267.98 260.8"><defs><style>.cls-1{fill:#010100;}.cls-2{fill:#ccf2b3;}.cls-3{fill:#85f23c;}.cls-4{fill:#dbfbc6;}.cls-5{fill:#dff5d1;}.cls-6{fill:#c4f2a7;}.cls-7{fill:#e9fcdc;}.cls-8{fill:#ebfae2;}.cls-9{fill:#e7f8dc;}.cls-10{fill:#ebf8e2;}.cls-11{fill:#d3f9bb;}.cls-12{fill:#b3f885;}.cls-13{fill:#b8ed94;}.cls-14{fill:#a5ea77;}.cls-15{fill:#e4f4d9;}.cls-16{fill:#d2f9b8;}.cls-17{fill:#eaf8e2;}.cls-18{fill:#def9cc;}.cls-19{fill:#ecf6e5;}.cls-20{fill:#e9f7e0;}.cls-21{fill:#e1fbd1;}.cls-22{fill:#67fd01;}.cls-23{fill:#67fe01;}.cls-24{fill:#4bad08;}.cls-25{fill:#67fe00;}.cls-26{fill:#77fc1e;}.cls-27{fill:#6afc08;}.cls-28{fill:#74fd19;}.cls-29{fill:#75f61e;}.cls-30{fill:#6ffb12;}.cls-31{fill:#6dfc0d;}.cls-32{fill:#6ff913;}.cls-33{fill:#6df90e;}.cls-34{fill:#8ef648;}.cls-35{fill:#73fb18;}.cls-36{fill:#a2e773;}.cls-37{fill:#6ffc11;}.cls-38{fill:#6afa0a;}.cls-39{fill:#7bf12b;}.cls-40{fill:#a2ed70;}.cls-41{fill:#b8f391;}.cls-42{fill:#88f241;}.cls-43{fill:#7ff92d;}.cls-44{fill:#81f335;}.cls-45{fill:#6cf710;}.cls-46{fill:#b3f388;}.cls-47{fill:#84fc33;}.cls-48{fill:#6cf50f;}.cls-49{fill:#79f426;}.cls-50{fill:#8aee47;}.cls-51{fill:#9afd58;}.cls-52{fill:#70f01a;}.cls-53{fill:#81f434;}.cls-54{fill:#7ef12f;}.cls-55{fill:#98ec60;}.cls-56{fill:#99f45b;}.cls-57{fill:#85ee3f;}.cls-58{fill:#90eb54;}.cls-59{fill:#b1f285;}.cls-60{fill:#95f653;}.cls-61{fill:#ccedb6;}.cls-62{fill:#6ef315;}.cls-63{fill:#a6f076;}.cls-64{fill:#85eb40;}.cls-65{fill:#72f11d;}.cls-66{fill:#c5e8ae;}.cls-67{fill:#bbf296;}.cls-68{fill:#92dd5f;}.cls-69{fill:#96fd50;}.cls-70{fill:#86e149;}.cls-71{fill:#92dd60;}.cls-72{fill:#6efb0f;}.cls-73{fill:#8ffd3a;}.cls-74{fill:#aef081;}.cls-75{fill:#c0f29f;}.cls-76{fill:#9ae766;}.cls-77{fill:#9beb64;}.cls-78{fill:#aafc6f;}.cls-79{fill:#91c271;}.cls-80{fill:#a9dc86;}.cls-81{fill:#c2f0a3;}.cls-82{fill:#cdfaaf;}.cls-83{fill:#a0d589;}.cls-84{fill:#a7e47e;}.cls-85{fill:#86e843;}.cls-86{fill:#add894;}.cls-87{fill:#83ba5e;}.cls-88{fill:#010201;}.cls-89{fill:#020200;}.cls-90{fill:#020202;}.cls-91{fill:#6cfd0a;}.cls-92{fill:#6dfa0e;}.cls-93{fill:#6cfd0b;}.cls-94{fill:#6bfd08;}.cls-95{fill:#86fd36;}.cls-96{fill:#6efd0e;}.cls-97{fill:#73f41a;}.cls-98{fill:#7aed2c;}.cls-99{fill:#9bf360;}.cls-100{fill:#96f05a;}.cls-101{fill:#70fb12;}.cls-102{fill:#7cf22f;}.cls-103{fill:#8dfd40;}.cls-104{fill:#70fd11;}.cls-105{fill:#73fd16;}.cls-106{fill:#89ed46;}.cls-107{fill:#8afd38;}.cls-108{fill:#71f517;}.cls-109{fill:#6ffd13;}.cls-110{fill:#8ed561;}.cls-111{fill:#a9e482;}.cls-112{fill:#a7dd83;}.cls-113{fill:#93ec5b;}.cls-114{fill:#78fd24;}.cls-115{fill:#78fc22;}.cls-116{fill:#92e25c;}.cls-117{fill:#7ddf3b;}.cls-118{fill:#70fd15;}.cls-119{fill:#7bfd22;}.cls-120{fill:#6ffd10;}.cls-121{fill:#a4fd5f;}.cls-122{fill:#9bfd58;}.cls-123{fill:#eff5ea;}.cls-124{fill:#0b1c01;}.cls-125{fill:#d7f0c6;}.cls-126{fill:#c0f29e;}.cls-127{fill:#e0f1d3;}.cls-128{fill:#cfebbc;}.cls-129{fill:#ace288;}.cls-130{fill:#383a36;}.cls-131{fill:#a6fa6f;}.cls-132{fill:#69f007;}.cls-133{fill:#6efa08;}.cls-134{fill:#d9f0ca;}.cls-135{fill:#cce9b7;}.cls-136{fill:#dcead2;}.cls-137{fill:#8fee50;}.cls-138{fill:#c6ecab;}.cls-139{fill:#2e332a;}.cls-140{fill:#b5c7a8;}.cls-141{fill:#81fd2e;}.cls-142{fill:#7cfd25;}.cls-143{fill:#89fd3c;}.cls-144{fill:#99fd55;}.cls-145{fill:#eaf5e2;}.cls-146{fill:#def6cd;}.cls-147{fill:#050b00;}.cls-148{fill:#020500;}.cls-149{fill:#85fd21;}.cls-150{fill:#76fd09;}.cls-151{fill:#82fd1a;}.cls-152{fill:#77fd0a;}.cls-153{fill:#7dfd1d;}.cls-154{fill:#83fd1d;}.cls-155{fill:#81fd15;}.cls-156{fill:#8afd26;}.cls-157{fill:#76fd0b;}.cls-158{fill:#89fd22;}.cls-159{fill:#0b1c00;}</style></defs><path class="cls-1" d="M823.82,623c-3.94-6.24-8.45-12.09-11.93-18.62-11.46-21.45-17-44.28-15.35-68.56a124.4,124.4,0,0,1,17-55.59c.6-1,1.14-2.09,1.7-3.13,1.13-1.81,1.54-4,2.87-5.69s2.38-3.5,3.83-5.06a148.63,148.63,0,0,1,21.52-22.2c1.92-1.71,4.16-3,6-4.78.43-.73.07-1.28-.4-1.82a16.75,16.75,0,0,0-3.67-3,27.52,27.52,0,0,0-4.39-3.12c-10.37-5.76-21.67-.44-23.86,11.26-.35,1.88-.63,3.78-1,5.67-.44,5.07,1,10.05.75,15.1-.3,1.81.45,3.48.7,5.22.19,1.37.61,2.93-1.64,3a5,5,0,0,1-1.63-3.06c-1.43-10-2.32-20.06.29-30a34.16,34.16,0,0,1,1.25-3.32,11.36,11.36,0,0,1,8-7.25c8.67-6.05,15.82-1.21,23,3.24.91.56,1.71,1.27,2.57,1.91,4.7,4.76,8.52.39,12.51-1.34,1.36-.59,2.54-1.7,4-2.3,9-5.42,18.81-8.77,28.86-11.41,7-1.84,14.13-3.46,21.49-3.22a1,1,0,0,1,1.07.13l.71-.05a163,163,0,0,1,20.85,0,214.8,214.8,0,0,1,28.69,5.16c6.81,1.59,13.46,3.58,19.46,7.3.91.56,2,.82,2.91,1.33,2.51,1.43,4.39.84,6-1.38,5.26-5.47,11-10.14,18.71-11.73,10.28-2.11,17.41,1.42,21.39,11,.78,1.86,1.47,3.74,2.2,5.62a9.57,9.57,0,0,1,1.58,8.08c-.46,2.1-.35,4.22-.76,6.3-.29,4.12-1.45,8.06-2.39,12.05-.45,1.14-.28,2.54-1.4,3.42a1.87,1.87,0,0,1-1.63-.09,3.24,3.24,0,0,1-1.18-3.1c.78-3.44,2.34-6.68,2.59-10.26.05-1.31,0-2.62.1-3.93s.78-2.84.63-4.35c0-1.44-.56-2.8-.65-4.22-.1-2.47-1.29-4.65-1.94-7-.5-2.29-2-4.11-2.94-6.19a3.57,3.57,0,0,0-2.64-2.29c-1.8-.78-3.64-1.45-5.48-2.12a8.6,8.6,0,0,0-3.87-.36,26.8,26.8,0,0,0-4.34,1c-7,2.35-13,5.93-16.39,12.81.56,1.23,1.88,1.4,2.84,2.08,1.7,1.22,3.63,2.09,5.24,3.45a135.73,135.73,0,0,1,19.27,15.79,81.56,81.56,0,0,1,6.45,7.21,25.5,25.5,0,0,1,2.32,3c.67.85,1.49,1.57,2.21,2.38,1.29,1.62,1.92,3.61,3,5.32q5.05,8.59,10.12,17.17a50.2,50.2,0,0,1,6.46,15.83,207.05,207.05,0,0,1,5.8,27.32c2.73,7.9,1,15.82.06,23.73a151.16,151.16,0,0,1-10.18,39.49c-3.44,10.88-10.08,19.89-16.86,28.82-4.44,6-9.82,11-15.09,16.21a61.12,61.12,0,0,1-5.76,3.82,160.64,160.64,0,0,1-31.42,18.66c-5.87,3.47-12,6.14-19,6.5l-22,3.8c-8.15,1.94-16.3,1.39-24.45,0-8.66-1.38-17.38-2.4-25.8-5-3.84-1.18-7.62-2.52-11.43-3.79-8.86-2.08-16.32-7-24-11.59-2.68-2-5.88-3.3-8.33-5.68A151.34,151.34,0,0,1,826.36,627C824.92,626,824.53,624.38,823.82,623Z" transform="translate(-796.26 -413.68)"/><path class="cls-2" d="M916.81,415.1c-9.17,1.22-18.29,2.62-27.16,5.42a153.86,153.86,0,0,0-20.85,8.23c-1,.5-1.91,1.47-3.22,1.26-.26-.14-.35-.29-.27-.44s.17-.23.25-.23l.75-1.38c3-1.32,5.77-3.1,8.81-4.43,2.79-1.22,5.47-2.71,8.45-3.49h0a57.86,57.86,0,0,1,31.22-5.39C915.48,414.72,916.24,414.48,916.81,415.1Z" transform="translate(-796.26 -413.68)"/><path class="cls-3" d="M826.54,626.07a192.55,192.55,0,0,0,21.08,19.8,2,2,0,0,1-2.84-.15c-3.63-3.15-7.74-5.69-11.22-9.07-1.53-1.48-2.32-3.65-4.37-4.61-1-.48-.68-2-1.8-2.39-.18-.36-.36-.73-.55-1.09A2,2,0,0,1,826.54,626.07Z" transform="translate(-796.26 -413.68)"/><path class="cls-4" d="M1033.86,623.25a157.72,157.72,0,0,0,17.36-28.54c-1.92,8.34-5,16.17-11.2,22.27-2.31,2.26-3.11,5.63-6,7.32A.69.69,0,0,1,1033.86,623.25Z" transform="translate(-796.26 -413.68)"/><path class="cls-5" d="M996,427.31c-.68,1.23-1.36,2.46-2.14,3.85a165.62,165.62,0,0,0-26.21-11.1,34.9,34.9,0,0,1,18.52,6.08C989.39,428.32,992.56,428.33,996,427.31Z" transform="translate(-796.26 -413.68)"/><path class="cls-6" d="M855.52,651.52a218.88,218.88,0,0,0,23.93,12.21c-3.4.31-6.47-.89-9.53-2.11-.74-.9-2.09-.62-2.87-1.45-3.3-3.27-8.39-3.69-11.51-7.24A.92.92,0,0,1,855.52,651.52Z" transform="translate(-796.26 -413.68)"/><path class="cls-7" d="M916.81,415.1c-7.41-.4-14.81-.35-22.07,1.42-3.79.93-7.18,3.18-11.17,3.52,10.58-6.35,21.9-7.75,33.82-5.05l-.26.18Z" transform="translate(-796.26 -413.68)"/><path class="cls-8" d="M1061.4,555.22c.3-7.91.39-15.82-.06-23.73a18.81,18.81,0,0,1,1.44,17.26C1061.92,550.87,1062.62,553.23,1061.4,555.22Z" transform="translate(-796.26 -413.68)"/><path class="cls-9" d="M916.68,672.5c8.15.31,16.3.5,24.45,0-3,2.17-6.32,2-9.75,2a89.33,89.33,0,0,1-12.24-.67A3.79,3.79,0,0,1,916.68,672.5Z" transform="translate(-796.26 -413.68)"/><path class="cls-10" d="M963.12,668.72c6.42-1.9,12.76-4,19-6.5C978.46,667.09,969,670.33,963.12,668.72Z" transform="translate(-796.26 -413.68)"/><path class="cls-11" d="M865.56,429.34c0,.22,0,.45,0,.67-3.61,2.24-7.25,4.42-10.79,6.76-1.45,1-1.88-.22-2.59-.87-1-.87-2.14-1.52-2.7-2.77,4.75-.18,9.53-.19,13.76-2.9A12.46,12.46,0,0,1,865.56,429.34Z" transform="translate(-796.26 -413.68)"/><path class="cls-12" d="M1033.86,623.25l.15,1c0,.2-.1.4-.14.61-2.62,4.88-7.21,8.25-10,13h0a4.46,4.46,0,0,1-2.62,2.06c-1,.17-2,.2-2.62-.77A216.4,216.4,0,0,0,1033.86,623.25Z" transform="translate(-796.26 -413.68)"/><path class="cls-7" d="M883.57,420c-3.58,1.7-7.07,3.65-10.78,5-2.25.83-3.75,3.26-6.48,2.91,3.69-4,9.48-4.46,13.51-8C880.52,419.36,882.3,420,883.57,420Z" transform="translate(-796.26 -413.68)"/><path class="cls-13" d="M1039.12,446.56c-.37-4.79.64-9.65-.82-14.38,3,2.41,4.26,5.4,2.28,9C1039.62,442.9,1040.14,444.92,1039.12,446.56Z" transform="translate(-796.26 -413.68)"/><path class="cls-14" d="M816.06,471.65c1.31-.45,1.29-1.14.9-2.42-.53-1.75-1.42-3.52-.91-5.47,3.62,1.52,4.3,3.48,2.7,7.87-1.13,1.83-1.77,4-3.47,5.42Z" transform="translate(-796.26 -413.68)"/><path class="cls-15" d="M1055.54,504.17q-3.22-7.92-6.46-15.83A24.69,24.69,0,0,1,1055.54,504.17Z" transform="translate(-796.26 -413.68)"/><path class="cls-16" d="M855.52,651.52c0,.47,0,.94,0,1.42-3.62-2.36-7.66-4.09-10.76-7.22l2.84.15Z" transform="translate(-796.26 -413.68)"/><path class="cls-4" d="M1023.89,637.92c1.93-5.41,6.82-8.54,10-13C1031.77,630.19,1027.79,634,1023.89,637.92Z" transform="translate(-796.26 -413.68)"/><path class="cls-17" d="M1039,471.17a21.72,21.72,0,0,1-3.62-4.95c-.76-1.53-1.22-3.06,0-4.61l1.44-3C1036.35,463,1037.72,467.07,1039,471.17Z" transform="translate(-796.26 -413.68)"/><path class="cls-18" d="M1018.64,639.21l3.07.12a1,1,0,0,1,.83.81c-2.76,1.81-6,2.35-9,3.42Z" transform="translate(-796.26 -413.68)"/><path class="cls-7" d="M939,414.9l-20.85,0c3.21-1.43,6.59-.61,9.87-.62C931.63,414.3,935.36,413.6,939,414.9Z" transform="translate(-796.26 -413.68)"/><path class="cls-19" d="M823.93,428a31.43,31.43,0,0,0-8,7.25C816.32,430.3,819.21,428.14,823.93,428Z" transform="translate(-796.26 -413.68)"/><path class="cls-20" d="M826.54,626.07l.3,2.49c-3.54-.51-2.61-3.42-3-5.61C825.18,623.59,825,625.58,826.54,626.07Z" transform="translate(-796.26 -413.68)"/><path class="cls-4" d="M1022.54,640.14l-.83-.81,2.17-1.41C1023.92,639,1023.94,640,1022.54,640.14Z" transform="translate(-796.26 -413.68)"/><path class="cls-21" d="M867.05,660.17c1.1.21,2.6-.4,2.87,1.45C868.67,661.71,867.56,661.54,867.05,660.17Z" transform="translate(-796.26 -413.68)"/><path class="cls-7" d="M827.39,629.65c1.63,0,1.53,1.35,1.8,2.39C827.92,631.75,827.78,630.61,827.39,629.65Z" transform="translate(-796.26 -413.68)"/><path class="cls-22" d="M973.52,662.33l-.17.15-.23,0c-1.57.44-3.35.2-4.67,1.43a2.55,2.55,0,0,1-2,.69c-3.88-.23-7.78.08-11.62-.29a8.91,8.91,0,0,0-5.77,1,37.42,37.42,0,0,1-12.8,4.18c-3.18.62-6.38-1.6-9.55,0-.45.19-.88.4-1.34.56a11.59,11.59,0,0,1-5.26-.44c-2.8-2-5.6-3.94-9.36-2.24a1.78,1.78,0,0,1-2.71-1.39c-.66-2.62-2.61-3-5-2.92-3.78.21-7.59,0-11.36.6a4.29,4.29,0,0,1-1-.19,2.69,2.69,0,0,1-1.56-1.23c-.22-.44.49-1,.2-1.12-2.93-.91-5.77-2.27-9-1.88a2.59,2.59,0,0,1-.85-.53c-1.86-3.57-4.08-6.06-8.73-4.13-1.41.59-3.12-.89-4-1.9-2.07-2.29-4.85-3.41-7.23-5.16-2.1-1.55-4.79-2.49-4.19-6.37-1.3,2.76-2.81,2.58-4.6,1.41a4.6,4.6,0,0,0-3.12-.52,106.11,106.11,0,0,1-22.43-22.65,6.5,6.5,0,0,0-2-3.69c-2.32-2-3.09-4.93-4.47-7.49a4.2,4.2,0,0,1-.61-.78c-.27-3.15-2.72-5.47-3.26-8.52a4.18,4.18,0,0,1-.08-1c.7-3.18.58-6.17-2-8.56a1.31,1.31,0,0,1-.74-.59c-.34-.88-.15-1.95-1-2.64-.66-.6-1.58-.95-1.86-1.93a8.17,8.17,0,0,1,0-1.4c.14-1.67,1.51-3.27.27-5-1.27-2.58-3.27-4.94-2.33-8.15-.39-1.37.73-2.47.78-4.18-1.43.61-3,.82-3.28-1-.57-3.25-3.1-5.23-4.65-7.84a69.49,69.49,0,0,1-.58-15.85,163.75,163.75,0,0,1,5.43-30.42c1.71-6.32,3.76-12.52,6.05-18.65,5.93-13.92,14.79-25.8,25.43-36.43,4.56-4.55,9.24-9,14.78-12.35,8.07-1.89,14.54-6.44,20.28-12.19a48,48,0,0,1,12-5.09c3.89-.44,7.66-1.27,11-3.48,10.42-3.38,21.18-4.46,32-4.76,4.11,1.08,8.45,0,12.52,1.37,3.34,2.34,7.22.29,10.73,1.31,3.72,1.08,7.71.74,11.37,2.17,2.75,1.39,5.89,1.6,8.78,2.36a25.45,25.45,0,0,1,12.82,7.75c2.45,2.67,5.86,3,9.24,2.82a8.94,8.94,0,0,1,4.18.51c11.47,6.16,21.22,14.48,30,24,1.45,1.56,2.74,3.28,4.1,4.92,2.2,10.22,7.73,18.8,13.53,27.22,2.75,4,4.93,8.16,5.53,13a3.83,3.83,0,0,0,1.34,2.79c.56.57,1.12,1.15,1.63,1.75.72,1,1.11-.53,1.73-.25,2.33,7.72,4.18,15.53,4.38,23.64-1.56,1.26-2.38.17-3-1.05a20.79,20.79,0,0,1-2-4.57c-.14-3.68-1.91-7-2.29-10.65-.08-1.15.19-2.37-1.06-3.75a46.48,46.48,0,0,0,4.7,18.9,22.73,22.73,0,0,1,1.22,19c-3.56,9.84-4.91,20.21-5.83,30.6-.36,4.05-1,8.05-1.72,12.05-4.36,11.2-10.95,21.06-18.58,30.25-2.49,3-4.9,6.14-8.06,8.54-3.69.34-6.94,2.77-11,1.91-1.62-.35-2.78,1-1.72,2.94-.3,2.27-3.81,2.51-3.32,5.28a2.28,2.28,0,0,1-.42.89,20.76,20.76,0,0,1-2.16,1.2c-3.57,2.34-5.9,6.1-9.65,8.27a58.61,58.61,0,0,1-5.55,3c-2.34,1.39-5.1,2-7.22,3.83h0C978.11,659.89,975.88,661.27,973.52,662.33Z" transform="translate(-796.26 -413.68)"/><path class="cls-23" d="M996.4,432.3c.83-3.49,3.36-5.69,6-7.76,3.36-2.63,6.76-5.2,11.1-6.05,1.58-.39,3.28-.14,4.79-.9,1.43,0,2.88-.34,4.28.24a20.33,20.33,0,0,1,5.72,2.26,25.2,25.2,0,0,1,2.71,2.22c.81,2.16,2.56,3.89,2.85,6.27a1.16,1.16,0,0,1-1.36.42c-1.72-1.07-2.9-2.73-4.47-4.1,1.4,1.51,2.91,2.78,4.16,4.31,1.21,2.28,3,4.21,3.94,6.67l.45,4.15c-.9,1.31-.48,2.87-.83,4.29.37,1.48-.93,3.05.24,4.5a23.54,23.54,0,0,1-2.76,9.9c-.64.85-.2,2.67-2.12,2.37l-6.6-7.25c2.41-6.16,2.41-12.58,1.69-19-.41-3.56-3.26-5.35-6.65-6.14s-6.3.68-8.75,2.89a19.94,19.94,0,0,0-3.16,4.31c-.59.92-.86,2.35-2.48,2.11l-5.15-3.56C999.26,433,997.57,433.07,996.4,432.3Z" transform="translate(-796.26 -413.68)"/><path class="cls-24" d="M844,444.5c-5,4.73-10.23,9.29-14.81,14.49-2.27,2.59-4.49,5.23-6.74,7.84-2.34.84-3.25-.47-2.92-2.42a38.21,38.21,0,0,0,.05-9.13c.46-2.82.57-5.68,1-8.51,1.22-8.24,4.9-11.41,13.22-11.18a15.2,15.2,0,0,1,1.78.12,5.33,5.33,0,0,1,1.1.26,16.18,16.18,0,0,1,5,3.13C842.87,440.71,845.15,441.87,844,444.5Z" transform="translate(-796.26 -413.68)"/><path class="cls-24" d="M1005.15,438a71.58,71.58,0,0,1,4.55-6.78,10.08,10.08,0,0,1,9.16-3.8c4.19.58,7.8,2.85,8.47,7.41a47.45,47.45,0,0,1,0,10.72,56.2,56.2,0,0,0-.57,5.66c0,1.51-.52,2.57-2.24,2.59C1018.24,448.33,1012.05,442.75,1005.15,438Z" transform="translate(-796.26 -413.68)"/><path class="cls-25" d="M836.83,436.57c-3.59.34-7.24-.78-10.74,1.55-5.07,3.37-4.17,8.66-5.1,13.41-.24,1.24.35,2.65-.69,3.75-1.06,1.34.19,2.75-.1,4.12-.21,1-.48,2.05-1.49,2.23-1.37.23-1.43-1.14-1.44-1.95-.06-4.19-1.5-8.18-1.62-12.35.27-7.16,2.58-12.89,9.1-17.05,5.6-3.57,10.59-2.59,15.83-.17a14.8,14.8,0,0,1,5.71,4.22,3.49,3.49,0,0,1,1.35,2.49,3,3,0,0,1-1.25,2.63,4.47,4.47,0,0,1-5.24,0l-4.35-2.9c.41-.37.5-.69-.11-1-.34-.16-.38-.11-.07.15A.63.63,0,0,1,836.83,436.57Z" transform="translate(-796.26 -413.68)"/><path class="cls-26" d="M1048.36,593.35c-1.56-2.53-.07-5.11.18-7.54,1.37-13.54,3.11-27,7.73-40,1.65-4.6-.17-8.66-2.08-12.64-3.48-7.25-5.61-17-4.73-23,1.55,2,3.55,3.5,2.44,6.29-.27,3.77,1.49,7.13,2.19,10.7,1.75,1.64.74,5.34,4.24,5.67,1.11,5.49.86,11,.56,16.55a66.68,66.68,0,0,0-3.22,13.1c-1.2,6.91-2.28,13.84-3.19,20.8C1051.32,586.72,1050.27,590.21,1048.36,593.35Z" transform="translate(-796.26 -413.68)"/><path class="cls-27" d="M847.62,642.08c.84-.69,2.09-1.74,2.81-1,2,2,2.68,2.62,3.91-.8.58-1.63,2.34,1.27,2.26,1.65C855.67,646.36,860,647,862,648c2.87,1.38,4.2,4.57,7.37,5.26.52.11.74,1,1.47.82,6.26-1.46,6.81-1.17,9.14,4.71a2.08,2.08,0,0,1-2.25.88h0c-1.36-1.52-3.33-1.66-5.1-2.25a76.15,76.15,0,0,1-16.5-9.18c-1-2.32-3.27-2.84-5.3-3.7A9.63,9.63,0,0,1,847.62,642.08Z" transform="translate(-796.26 -413.68)"/><path class="cls-28" d="M1050.48,508.49c-1-.54-2.1-1-2.15-2.51-.23-6.25-3.85-10.91-7.08-15.94-4.81-7.5-10-15-11.49-24.1-.06-.39.28-.85.43-1.28l1.62,2.06c2.94,7.18,6.22,14.18,11,20.39,4.19,5,7.33,10.49,8.33,17C1051.36,505.64,1051.8,507.2,1050.48,508.49Z" transform="translate(-796.26 -413.68)"/><path class="cls-29" d="M810.85,491.78c-.69,5.22-2.74,10.08-4,15.14-2.72,10.71-5.66,21.33-6.76,32.37a5.68,5.68,0,0,1-.7,1.56A109.36,109.36,0,0,1,810.85,491.78Z" transform="translate(-796.26 -413.68)"/><path class="cls-30" d="M996.06,435.77c-2.27-.45-4.33.87-6.71.56a15.16,15.16,0,0,1-9.94-5.7c-2.39-2.83-5.66-3.58-9.12-4.69-3.19-1-6.54-1.85-9.74-3,.76-.77,1.57-1.39,2.71-.71a80.46,80.46,0,0,1,18.13,6,17.42,17.42,0,0,0,10.12,4.93A13.8,13.8,0,0,1,996.06,435.77Z" transform="translate(-796.26 -413.68)"/><path class="cls-31" d="M891.44,663.11c4.46-1.46,9.11-.41,13.64-1a3.72,3.72,0,0,1,3.79,2.86c0,4,2.18,1.37,3.11,1.14a7.3,7.3,0,0,1,8.15,3.55l-3.36-.19c-1.37-1.32-3-.55-4.55-.56a10.7,10.7,0,0,1-4.13-.51,9.18,9.18,0,0,1-1.64-1.84c-1.29-1.88-2.61-2.72-4.69-1-1.4,1.16-2.91.38-4.35-.16-1.13-.36-2.31.55-3.42-.14a3.09,3.09,0,0,1-2.48-.69A1,1,0,0,1,891.44,663.11Z" transform="translate(-796.26 -413.68)"/><path class="cls-32" d="M815.65,447.33a31.55,31.55,0,0,1,2.47,13.92c2.47-1.67.39-4.45,2.17-6,.44,3,1.17,6,.06,9-.66,1.79.56,2.39,2.1,2.57l-3.7,4.8c.2-3,.2-5.93-2.7-7.87C815.92,458.28,814.81,452.83,815.65,447.33Z" transform="translate(-796.26 -413.68)"/><path class="cls-33" d="M936.09,668.84c5.26-1.32,10.59-2.48,15-5.93a1.59,1.59,0,0,1,2,.05,5.47,5.47,0,0,0,3.06.56c3.47,0,7-.54,10.34,1.05a23.68,23.68,0,0,1-8,2.1c-3-.68-5.8.28-8.67.72a8.29,8.29,0,0,1-3.29.72c-1.49-.13-2.62.85-3.92,1.3l-5.82.41C936.11,669.75,935.84,669.47,936.09,668.84Z" transform="translate(-796.26 -413.68)"/><path class="cls-34" d="M1050.48,508.49c.29-8.25-3.21-14.95-8.58-20.88-1.12-2.86-3-5.3-4.47-8-.71-1.27-1.92-2.46-1.5-4.17,1.88-.68,2.14,1,2.8,2,3,4.47,5.24,9.34,8.31,13.74,2.42,4.07,3.88,8.54,5.4,13-.46,1.91,1.3,4-.57,5.82C1051.41,509.49,1051,509,1050.48,508.49Z" transform="translate(-796.26 -413.68)"/><path class="cls-35" d="M1008.76,637.18c0-1.09-2.48-1.9-1.11-2.61,1.19-.62,2.45-3.16,4.26-1.34,1.3,1.3,2.63.16,3.11-.15,2.18-1.43,4.4-1.15,6.7-.94a21.15,21.15,0,0,1-5.53,5.14c-1.5.71-3.32,0-4.74,1.1C1010.26,638.63,1009.27,638.45,1008.76,637.18Z" transform="translate(-796.26 -413.68)"/><path class="cls-36" d="M1052.48,583.28c-1.53-2.83,0-5.64.3-8.36.93-7.64,2-15.29,4.37-22.65.34-1,.26-2.48,1.74-2.89-.85,1.4.19,3-.5,4.43-1.6,7.35-2.65,14.79-3.72,22.23Z" transform="translate(-796.26 -413.68)"/><path class="cls-37" d="M800,556.7c2.8,1.58,4.53,4.17,5.77,8.64,1.46.53.29-2.74,2.18-1.55,1.36.85,1.45,2,.82,3.38-.35.78-1.46,1.37-.74,2.48-1.42,1.55-2.59.64-3.76-.36a6.27,6.27,0,0,1-1.62-2.41,4.44,4.44,0,0,1-.21-1c0-1.94-1.14-3.42-2.06-5Z" transform="translate(-796.26 -413.68)"/><path class="cls-38" d="M871.34,430.81a27.76,27.76,0,0,1-13.07,10.67,15.54,15.54,0,0,1-7.21,1.52c.92-1.51,2.78-1.69,4-2.82A65.62,65.62,0,0,0,867,433,10.27,10.27,0,0,1,871.34,430.81Z" transform="translate(-796.26 -413.68)"/><path class="cls-39" d="M963.26,422.21l-2.71.71c-5.38-.7-10.63-2.44-16.13-2.1-2,.13-4,.56-5.45-1.43l.37-.42c3.25-1,6.53.67,9.79-.09C953.88,419.81,958.77,420.16,963.26,422.21Z" transform="translate(-796.26 -413.68)"/><path class="cls-40" d="M1047,491.2c-4.09-3.73-5.92-9-9-13.38-.59-.86-.83-2-1.94-2.43-1.38-1.22-3.09-2.38-.91-4.34A88.41,88.41,0,0,1,1047,491.2Z" transform="translate(-796.26 -413.68)"/><path class="cls-41" d="M1054.67,576c-1.11-3.44.46-6.65.83-10a39.32,39.32,0,0,1,2.89-12.26A91.58,91.58,0,0,1,1054.67,576Z" transform="translate(-796.26 -413.68)"/><path class="cls-42" d="M897.91,664.61c1.12.6,2.08,1.23,3.53.35,3.63-2.18,5.91-.92,6.65,3.43a44.54,44.54,0,0,1-9.44-1.84C897.83,666.12,897.2,665.62,897.91,664.61Z" transform="translate(-796.26 -413.68)"/><path class="cls-43" d="M1035.22,471.05c-1.29,1.78.54,2.9.91,4.34.63,3.2,2.84,5.59,4.37,8.33.69,1.24,1.47,2.39,1.4,3.89a88.69,88.69,0,0,1-9.33-16.73,7.81,7.81,0,0,1-.76-4.16A15.93,15.93,0,0,1,1035.22,471.05Z" transform="translate(-796.26 -413.68)"/><path class="cls-44" d="M987.86,655.16c5.37-2.49,9.39-6.72,13.65-10.65a7.44,7.44,0,0,1,1.48-.86,1.39,1.39,0,0,1,.44,1.32,4.44,4.44,0,0,1-.58,1.36,3.47,3.47,0,0,1-.67.71c-1.23.55-1.75,1.85-2.78,2.61a16.88,16.88,0,0,0-4.29,2.85,23.74,23.74,0,0,1-6.53,3.44C987.88,656.11,987.69,655.8,987.86,655.16Z" transform="translate(-796.26 -413.68)"/><path class="cls-45" d="M841.15,439.44c1.73,0,3.48.2,5.08-.68,1.46.16,3.11-.76,4.35.73l-6.58,5C843.93,442.32,842.1,441.13,841.15,439.44Z" transform="translate(-796.26 -413.68)"/><path class="cls-46" d="M803.05,566.64l1.43,2.22c1.89,2.5.76,5.57,1.57,8.27-.16,1.21.31,2.7-1.39,3.25a73.29,73.29,0,0,1-3-11.48C802.16,568.15,802.1,567.1,803.05,566.64Z" transform="translate(-796.26 -413.68)"/><path class="cls-47" d="M809.42,592.63a1.52,1.52,0,0,1-.68-1.45l.21-.37a2.56,2.56,0,0,0,1-1.7,1.4,1.4,0,0,1,.67-.56,1.52,1.52,0,0,1,1.66.49h0c2.86,1.52,2.14,4.52,2.87,6.92.23.77-.39,1.6,0,2.41h0c.5.87.64,1.7-.35,2.35a2.14,2.14,0,0,1-2.09-1.3C812.06,597,812.05,594.15,809.42,592.63Z" transform="translate(-796.26 -413.68)"/><path class="cls-48" d="M818.82,607.72a17.75,17.75,0,0,1,1.85.68c-1,3.74,2.16,5.29,3.88,7.59.74,1,1.79,2,.64,3.44a59,59,0,0,1-7.66-10.89A1.21,1.21,0,0,1,818.82,607.72Z" transform="translate(-796.26 -413.68)"/><path class="cls-49" d="M877.72,659.64l2.25-.88h0c3,1.54,7,.34,9.37,3.58a1.59,1.59,0,0,1,1.47.68c-.3.66-.91.76-1.53.87A45.14,45.14,0,0,1,877.72,659.64Z" transform="translate(-796.26 -413.68)"/><path class="cls-45" d="M894.37,422.24c-.29.66,1,1.91-.46,2-3.55.25-6.73,3.15-10.53,1.47A39.34,39.34,0,0,1,894.37,422.24Z" transform="translate(-796.26 -413.68)"/><path class="cls-50" d="M991.51,433.11c-3.77.88-8.75-1.54-10.12-4.93A56.35,56.35,0,0,1,991.51,433.11Z" transform="translate(-796.26 -413.68)"/><path class="cls-51" d="M939,419.39c-4.13-.78-8.34-.49-12.51-.78-.34,0-.92,0-1-.14-.34-.88.88-.4.94-1a31.78,31.78,0,0,1,10.25.37c.63.58,1.46.3,2.18.49a.54.54,0,0,1,.26.49c0,.19-.05.29-.1.29Z" transform="translate(-796.26 -413.68)"/><path class="cls-52" d="M867,433c-3.28,3.61-7,6.44-12,7.23A51.93,51.93,0,0,1,867,433Z" transform="translate(-796.26 -413.68)"/><path class="cls-53" d="M809.43,584l2.15,1.46c1.17,1.81-1.72,2-1.37,3.53l-.05.07a5.1,5.1,0,0,1-1.27,2l-.15.12a12.47,12.47,0,0,1-1.87-4.33,3,3,0,0,1,1.59-3A1.15,1.15,0,0,1,809.43,584Z" transform="translate(-796.26 -413.68)"/><path class="cls-54" d="M936.09,668.84l.63,1a19.37,19.37,0,0,1-6.31.32c-1.34-1.07-3,.45-4.37-.56,1.42-2.22,3.55-2,5.58-1.37A13.66,13.66,0,0,0,936.09,668.84Z" transform="translate(-796.26 -413.68)"/><path class="cls-55" d="M808.68,584l-1.81,2.83c-.74-2.16-1.47-4.32-2.21-6.47.82-1.1.37-2.37.48-3.56,2-.18,3.89-.45,2.16,2.66C806.36,581.14,808,582.57,808.68,584Z" transform="translate(-796.26 -413.68)"/><path class="cls-56" d="M809.42,592.63c.79-.94,2.26-.86,2.3,0,.1,2.26,2.18,4.09,1.28,6.48-.21.35-.43.35-.64,0A20.49,20.49,0,0,1,809.42,592.63Z" transform="translate(-796.26 -413.68)"/><path class="cls-57" d="M1032.55,428.62l1.3,0c.9,2.39,2.13,4.67,2.27,7.29-1.5-2.12-3.91-3.63-4.35-6.46C1031.59,428.71,1031.85,428.45,1032.55,428.62Z" transform="translate(-796.26 -413.68)"/><path class="cls-58" d="M812.36,599.08H813l1.55,1.47c2.22,1.91,2.81,4.79,4.26,7.17h0l-1.29.82A45.74,45.74,0,0,1,812.36,599.08Z" transform="translate(-796.26 -413.68)"/><path class="cls-59" d="M949.75,666.66c2.89-.74,5.79-1.86,8.68,0-1.91.53-3.76,1.36-5.8,1.32C951.83,667.2,950,668.7,949.75,666.66Z" transform="translate(-796.26 -413.68)"/><path class="cls-60" d="M1011.61,637.9c1.14-3,3-.43,4.58-.62a13.84,13.84,0,0,1-3.85,3.38c-.7-.24-1.59.16-2.12-.63C1009.88,638.8,1011.31,638.72,1011.61,637.9Z" transform="translate(-796.26 -413.68)"/><path class="cls-61" d="M1002.17,646.41a3.39,3.39,0,0,1,.2-.53c1.62-1,2.93-2.43,4.57-3.41a3.12,3.12,0,0,1,1.86-.61c.52.17.91.42.7,1.06a35.11,35.11,0,0,1-7.21,5.13C1000.36,647.64,1002.13,647,1002.17,646.41Z" transform="translate(-796.26 -413.68)"/><path class="cls-62" d="M987.86,655.16l.73.78a26.79,26.79,0,0,1-7.87,3.57C982.3,656.75,985.22,656.18,987.86,655.16Z" transform="translate(-796.26 -413.68)"/><path class="cls-14" d="M939,419.12c0-.18,0-.35,0-.52,1.11-.78,2.44,0,3.59-.54l6.55.82C945.79,420.32,942.4,419.53,939,419.12Z" transform="translate(-796.26 -413.68)"/><path class="cls-63" d="M1051.87,510c.36-1.93-.5-4,.57-5.82q.76,2.51,1.51,5l-1,2.78C1052.54,511.16,1052.21,510.58,1051.87,510Z" transform="translate(-796.26 -413.68)"/><path class="cls-64" d="M850.58,439.49c-1.44-.31-3.08.56-4.35-.73.81-.58.57-1.47.7-2.26,1.22-.83,1.87.33,2.71.8C850.11,438,851.8,438.1,850.58,439.49Z" transform="translate(-796.26 -413.68)"/><path class="cls-65" d="M850.85,644.51c2.45.26,5.52-.37,5.3,3.7A19.59,19.59,0,0,1,850.85,644.51Z" transform="translate(-796.26 -413.68)"/><path class="cls-66" d="M949.75,666.66c.61,1.19,2.18.32,2.88,1.33a28,28,0,0,1-7.23,1.07c-.45-.87.2-1.24.75-1.65Z" transform="translate(-796.26 -413.68)"/><path class="cls-67" d="M1035.29,461.61c0,1.53,0,3.07,0,4.61l-2-2.41c-.51-.92-1-1.82.63-2.12Z" transform="translate(-796.26 -413.68)"/><path class="cls-62" d="M973.52,662.33c2.19-1.49,4.13-3.62,7.21-2.82A22.08,22.08,0,0,1,973.52,662.33Z" transform="translate(-796.26 -413.68)"/><path class="cls-68" d="M912.22,668.9c1.75-1.67,3.34-2.11,4.55.56A7.35,7.35,0,0,1,912.22,668.9Z" transform="translate(-796.26 -413.68)"/><path class="cls-49" d="M872.65,657.39c2.09-.12,4.23-.39,5.1,2.25A11.62,11.62,0,0,1,872.65,657.39Z" transform="translate(-796.26 -413.68)"/><path class="cls-69" d="M800.33,560.93c1.74,1.23,3.28,2.56,2.69,5-.52.45-.84.08-1.16-.29-.43-.83-.36-1.86-1-2.59C800.66,562.36,800.49,561.65,800.33,560.93Z" transform="translate(-796.26 -413.68)"/><path class="cls-70" d="M1033.93,461.69c-.81.53-.6,1.36-.63,2.12l-2.2-2.72c1.18-.37,1.26-1.72,2.12-2.37C1033.39,459.73,1033.08,460.85,1033.93,461.69Z" transform="translate(-796.26 -413.68)"/><path class="cls-71" d="M995.11,652.5c1-1.62,2.14-3,4.23-3.1.31-.35.58-.33.81.08A18.06,18.06,0,0,1,995.11,652.5Z" transform="translate(-796.26 -413.68)"/><path class="cls-72" d="M996.4,432.3a5.45,5.45,0,0,1,4.19,1.36c1,.76-.26.61-.59.82A7.13,7.13,0,0,1,996.4,432.3Z" transform="translate(-796.26 -413.68)"/><path class="cls-73" d="M1035.45,444.52c.43-1.48-1.2-3.48,1.12-4.49a9.85,9.85,0,0,1-.4,4.38C1036,444.75,1035.74,444.79,1035.45,444.52Z" transform="translate(-796.26 -413.68)"/><path class="cls-74" d="M1000.15,649.48l-.8-.08c.73-1.19.71-3.09,2.82-3,.07.55-.57,1.14.12,1.64Z" transform="translate(-796.26 -413.68)"/><path class="cls-75" d="M1009.5,642.92l-.77-.72c-.34-1,.28-1.53,1-2l.49-.11c.76,0,1.54-.09,2.12.58Z" transform="translate(-796.26 -413.68)"/><path class="cls-76" d="M897.91,664.61c.24.65.49,1.3.74,1.94a10.31,10.31,0,0,1-4.66-1.29Z" transform="translate(-796.26 -413.68)"/><path class="cls-77" d="M946.15,667.41l-.75,1.64c-.88.68-1.88.43-2.85.36C943.39,668.1,944.42,667.13,946.15,667.41Z" transform="translate(-796.26 -413.68)"/><path class="cls-78" d="M1035.45,444.52l.72-.11a9,9,0,0,1-.19,4.41C1033,447.73,1036.12,445.89,1035.45,444.52Z" transform="translate(-796.26 -413.68)"/><path class="cls-79" d="M849.64,437.3l-2.71-.8-.64-2.17C847.85,434.82,848.72,436.09,849.64,437.3Z" transform="translate(-796.26 -413.68)"/><path class="cls-80" d="M926,669.58c1.4.64,3.19-1.72,4.37.56l-5,0Z" transform="translate(-796.26 -413.68)"/><path class="cls-33" d="M968.45,663.88c1-2.18,3-1.37,4.67-1.43A9.11,9.11,0,0,1,968.45,663.88Z" transform="translate(-796.26 -413.68)"/><path class="cls-81" d="M942.58,418.06c-1.08.94-2.39.37-3.59.54-.81-.13-1.73.08-2.32-.75Z" transform="translate(-796.26 -413.68)"/><path class="cls-82" d="M802.23,565.3l.79.65a5.31,5.31,0,0,1,0,.69,2.58,2.58,0,0,1-1.35,2.26c-.1-.69-.19-1.39-.28-2.08S800.85,565.22,802.23,565.3Z" transform="translate(-796.26 -413.68)"/><path class="cls-83" d="M1018.19,418.09c-1.5.93-3.11.44-4.69.41a12.32,12.32,0,0,1,4.61-1.22C1018.52,417.51,1018.54,417.78,1018.19,418.09Z" transform="translate(-796.26 -413.68)"/><path class="cls-84" d="M802.23,565.3l-.81,1.52c-.94-1.13-.57-2.47-.6-3.74A2.25,2.25,0,0,1,802.23,565.3Z" transform="translate(-796.26 -413.68)"/><path class="cls-85" d="M889.28,663.9a1.63,1.63,0,0,1,1.53-.87c.21,0,.42.06.63.08,0,.49,0,1,.07,1.45C890.71,664.55,889.88,664.63,889.28,663.9Z" transform="translate(-796.26 -413.68)"/><path class="cls-86" d="M1018.19,418.09c0-.27-.05-.54-.08-.81,1.52,0,3.11-.71,4.46.55Z" transform="translate(-796.26 -413.68)"/><path class="cls-87" d="M1031,422.31a4,4,0,0,1-2.71-2.22A3,3,0,0,1,1031,422.31Z" transform="translate(-796.26 -413.68)"/><path class="cls-88" d="M825.92,563.87c-18.88-17.69-20.79-43.81-4.46-64,5.52-6.84,13-10.9,21.6-12.67,1.11-1.65,2.83-1.13,4.38-1.23,3.71.28,7.59-.49,11,1.64,19,6.5,28.55,20.32,29.93,39.77.89,12.51-3.23,23.73-11.83,33.11-.79.86-1.53,1.76-2.29,2.65a34.68,34.68,0,0,1-17.34,9.49c-1,.24-2.13.27-3.16.6-5.24.94-10.26-.86-15.39-1.24-2.16-1.1-4.44-2-6.56-3.18-1.23-.79-2.4-1.67-3.62-2.48A16.92,16.92,0,0,1,825.92,563.87Z" transform="translate(-796.26 -413.68)"/><path class="cls-89" d="M928,624.41c-12.49-.06-24.29-2.6-34.67-9.83-16.13-11.22-16.06-29,0-40.23,8.27-5.77,17.61-8.58,27.5-9.47,15.44-1.4,30.16.88,43,10.18,6.43,4.64,11,10.66,11.14,19.1.13,8.91-4.72,15.14-11.47,20C952.94,621.82,940.78,624.4,928,624.41Z" transform="translate(-796.26 -413.68)"/><path class="cls-90" d="M1029.06,535.14c.09,7.38-2.83,13.44-8.08,18.49-2.66,3.39-6.38,4.9-10.38,5.94a24.29,24.29,0,0,1-8,.82,9.9,9.9,0,0,1-3.33-.5c-2.74-.27-5.15-1.5-7.64-2.52a25.58,25.58,0,0,1-5.47-3.82,14.5,14.5,0,0,1-1.18-2.24l-3.36-4.76c-1.42-.93-1-2.82-2.08-3.92-1.81-4.63-1.23-9.17.53-13.66A25.37,25.37,0,0,1,993,515.32c1.66-.77,3.42-.91,5.1-1.46,1.53-.19,3.18.2,4.5-1l10.6,2.23a9.55,9.55,0,0,1,5.72,3,26.82,26.82,0,0,1,9.39,12.51C1028.84,532.06,1030,533.41,1029.06,535.14Z" transform="translate(-796.26 -413.68)"/><path class="cls-91" d="M897.56,453.64a4.35,4.35,0,0,1-2.11,2.85,11.84,11.84,0,0,0-5.67,6.25c-.47,1.22-4.42,1.45-4.85.23-.7-2-3-2.65-3.35-4.81-.23-1.36-1.58-.54-2.41-.72-.67-.15-1.52.1-1.84-.76-.41-1.12.67-1.35,1.24-1.88a4.06,4.06,0,0,1,2.26-.74c1.58-.29,3.75.53,4.53-1.89.07-.19,1.38-.33,1.6-.06,2.52,3.09,4.64-2.14,7-.29.17-.88.2-2.29,1.55-1.21C896.47,451.33,896.92,452.63,897.56,453.64Z" transform="translate(-796.26 -413.68)"/><path class="cls-92" d="M838.24,571.14c5.23.7,10.42,1.83,15.75,1.3,2.17.35,4.52-.76,6.55.76a34.22,34.22,0,0,1-8.36,2.64c-1.95.35-2.6-1-3.86-1.39-5.29-1.54-11-.86-16.1-3.11-1.58-.7-3.17-1.13-3.32-3.19,1.16-.52,1.93.55,2.92.71C834,569.59,836,570.58,838.24,571.14Z" transform="translate(-796.26 -413.68)"/><path class="cls-93" d="M972.08,626.42c-.35.92-1.5.68-2.05,1.72-1.32,2.52-3,2-4.95.06-2.89-2.83-.15-4.84.29-7.2,2.36,1,2-.71,1.84-2.06,1.6-.15,2.29,2.15,3.95,1.07.76-.48.35-1,.19-1.51.8,0,1.65.12,2.17-.72a.74.74,0,0,1,.93,0c1.8,2.72-.72,3.56-2.13,4.88a21.4,21.4,0,0,0-3.61,1.4c-.67.44-1.77,1-1.29,1.75.72,1.15,1.88-.11,2.85,0a3.43,3.43,0,0,1,1,.09A1.81,1.81,0,0,1,972.08,626.42Z" transform="translate(-796.26 -413.68)"/><path class="cls-94" d="M883.54,465.58c-1.12,3.1-6.27-1-6.18,4.27-.65-.71-.91-1.05-1.22-1.34-3.08-2.89-3.24-3.94-.41-7.09,1.62-1.8,3.23-.83,4.24.86C880.87,463.8,881.62,465.32,883.54,465.58Z" transform="translate(-796.26 -413.68)"/><path class="cls-95" d="M808.68,584c-3-1.36-3.58-4.27-1-6.11l-2.51-1.09-.66-8c1.17.27,2.13,1.43,3.5.79.61,1.22.62,2.27-.78,3,2.72.44,1,3.6,2.8,4.6.09,0,.12.21.17.31.78,1.42-.18,2.52-.8,3.56-.75,1.24,0,1.68.79,2.23l-.73.68Z" transform="translate(-796.26 -413.68)"/><path class="cls-96" d="M974.25,617.79h-.73c.28-2.18,4.5-4.39,6.23-3.24.66.42,1.11,1.1.73,1.82-1.4,2.66-2.14,5.74-4.66,7.73-.86.67-2.31.84-1.7,2.6.16.47-.26.59-2-.27l-.76,0a1.5,1.5,0,0,1,.23-1.4,11.09,11.09,0,0,1,3.1-3.4C976.41,620,976.06,618.88,974.25,617.79Z" transform="translate(-796.26 -413.68)"/><path class="cls-97" d="M860.54,573.2c-2.19-.16-4.48.48-6.55-.76a46.91,46.91,0,0,0,20.28-9.33c1.15,2-1.07,2.22-1.77,2.65C868.49,568.2,865.07,571.6,860.54,573.2Z" transform="translate(-796.26 -413.68)"/><path class="cls-98" d="M998,514.24c-7.65,2.47-13.68,6.89-17.21,14.31a.78.78,0,0,1-.77-.69c1.38-4.08,4.17-7.14,7.21-10a30.77,30.77,0,0,1,5.75-3.59h0A7,7,0,0,1,998,514.24Z" transform="translate(-796.26 -413.68)"/><path class="cls-99" d="M991.62,556.57c2.69.58,5,2.36,7.82,2.53a1.64,1.64,0,0,1-1.94,1.2c-3-.37-6.2-.33-8.87-2.21-2-1.81-5-3.12-3.65-6.78l1.49,1.52A6.19,6.19,0,0,0,991.62,556.57Z" transform="translate(-796.26 -413.68)"/><path class="cls-100" d="M980,527.86l.77.69a24.86,24.86,0,0,0-.58,14.34.68.68,0,0,1-.23,1c-2.84-2.61-2.67-5.94-2.2-9.33A27.5,27.5,0,0,1,980,527.86Z" transform="translate(-796.26 -413.68)"/><path class="cls-101" d="M988.63,558.09c3.57.71,7,2.25,10.81,1l2.86.49c.45.44,1.33.18,1.57,1-.06.16-.11.31-.16.46C998.4,561.47,993.12,561.8,988.63,558.09Z" transform="translate(-796.26 -413.68)"/><path class="cls-101" d="M1016.69,558.1c-.37,1.68-.65,3.37-3.15,2.49a2.21,2.21,0,0,0-2,.38c-2,2.93-4.82-.26-7,1-.07,0-.58-.66-.88-1l0-.06c2.14-1.62,4.85-1,7.18-1.82C1012.91,559.12,1014.54,557.17,1016.69,558.1Z" transform="translate(-796.26 -413.68)"/><path class="cls-102" d="M858.46,487.58l-10.81-.89c-1.35-.87-3.26.12-4.43-1.36,4.87-1.49,9.56-.23,14.26.91C858.14,486.4,858.31,487,858.46,487.58Z" transform="translate(-796.26 -413.68)"/><path class="cls-31" d="M889.34,662.35c-2.91-1.76-6.81-.91-9.37-3.58,2.86-.29,5.71-.91,8.15,1.49,1.46,1.45,1.59-1.35,3-1.1C892.09,661,889.44,661.08,889.34,662.35Z" transform="translate(-796.26 -413.68)"/><path class="cls-103" d="M1011.61,637.9c.91,1.6-1.35,1.18-1.39,2.18h0c-1.53.43-2.25,2-3.62,2.64a1.69,1.69,0,0,1-1.43-.5c-1.07-3.31,2.39-3.37,3.6-5A4.62,4.62,0,0,0,1011.61,637.9Z" transform="translate(-796.26 -413.68)"/><path class="cls-104" d="M815.21,598.37c-1.39-3-.92-6.53-2.89-9.33,2-.68,2.85-.72,2.8,2.14C815.07,593.53,817.08,595.89,815.21,598.37Z" transform="translate(-796.26 -413.68)"/><path class="cls-105" d="M818.81,607.72a18.78,18.78,0,0,1-4.26-7.17c.78-.55.63-1.4.66-2.18C817,601.28,818.53,604.25,818.81,607.72Z" transform="translate(-796.26 -413.68)"/><path class="cls-106" d="M1016.69,558.1l-5,1.46c-.25-.28-.7-.35-.77-.79a39.8,39.8,0,0,0,10.08-5.14C1021.17,556.68,1018.09,556.58,1016.69,558.1Z" transform="translate(-796.26 -413.68)"/><path class="cls-107" d="M1054.09,527.16c-1.68-3.37-3.08-6.8-2.19-10.7C1052.43,520.07,1054.41,523.38,1054.09,527.16Z" transform="translate(-796.26 -413.68)"/><path class="cls-104" d="M810.16,583.3c-1.66,0-2.53-.48-1.72-2.35.52-1.19,1.76-2,1.73-3.44C812.26,579.45,809.7,581.37,810.16,583.3Z" transform="translate(-796.26 -413.68)"/><path class="cls-108" d="M998,514.24h-5c1.58-2.16,3.94-.31,5.91-1.05a9.06,9.06,0,0,1,3.69-.27C1001.45,514.83,999.52,513.91,998,514.24Z" transform="translate(-796.26 -413.68)"/><path class="cls-93" d="M971.34,618.79c-1.47-1-3.35-.5-3.79-2.15-.18-.65.84-1,1.58-1C971,615.69,971.41,616.93,971.34,618.79Z" transform="translate(-796.26 -413.68)"/><path class="cls-109" d="M835.26,484.11c-1.41,1-2.33,2.09-3.87,1.51-.16-.05-.23-.94,0-1.24C832.39,482.86,833.61,483.22,835.26,484.11Z" transform="translate(-796.26 -413.68)"/><path class="cls-104" d="M810.21,589c-.25-.81-2.28-2,.45-2.2.72-.06.86-.71.92-1.33,1.58.93.95,2.31.73,3.6Z" transform="translate(-796.26 -413.68)"/><path class="cls-108" d="M992.94,514.24c-1.5,1.86-3.62,2.74-5.75,3.59C988.68,516,990.13,514,992.94,514.24Z" transform="translate(-796.26 -413.68)"/><path class="cls-110" d="M1018.87,518.09l-5.72-3C1015.87,514.56,1017.74,515.61,1018.87,518.09Z" transform="translate(-796.26 -413.68)"/><path class="cls-111" d="M843.22,485.33c1.5.4,3.32-.3,4.43,1.36l-4.59.48A1.08,1.08,0,0,1,843.22,485.33Z" transform="translate(-796.26 -413.68)"/><path class="cls-112" d="M831.06,569.26l-2.16-1.11-.83-1.34a.91.91,0,0,1,.17-1.17l3.71,2.42A1.69,1.69,0,0,1,831.06,569.26Z" transform="translate(-796.26 -413.68)"/><path class="cls-74" d="M1005.16,642.22l1.41.06c.3.16.7.22.75.67-1.61,1-2.68,3-5,2.93l.63-.78a12.22,12.22,0,0,1,2-2.32C1005.08,642.59,1005.12,642.41,1005.16,642.22Z" transform="translate(-796.26 -413.68)"/><path class="cls-113" d="M1029.06,535.14c-.27-1.51-.54-3-.8-4.54C1029.62,531.92,1031.76,533.1,1029.06,535.14Z" transform="translate(-796.26 -413.68)"/><path class="cls-114" d="M887.35,509.3a4.06,4.06,0,0,1-1.19-3.57C887.64,506.81,887.15,508.24,887.35,509.3Z" transform="translate(-796.26 -413.68)"/><path class="cls-115" d="M888.31,516.67c-.41-1-1.24-1.77-.56-2.93C889,514.53,888.63,515.5,888.31,516.67Z" transform="translate(-796.26 -413.68)"/><path class="cls-116" d="M828.24,565.64c-.06.39-.12.78-.17,1.17a4.22,4.22,0,0,1-2.15-2.94Z" transform="translate(-796.26 -413.68)"/><path class="cls-117" d="M979.94,543.85c.07-.32.15-.64.23-1l1.45,3.66C980.22,546.17,979.92,545.11,979.94,543.85Z" transform="translate(-796.26 -413.68)"/><path class="cls-69" d="M1005.05,642.78a3.12,3.12,0,0,1-2,2.32c0-.49,0-1,0-1.45C1003.47,642.86,1004.29,642.89,1005.05,642.78Z" transform="translate(-796.26 -413.68)"/><path class="cls-118" d="M828.35,487c.5,0,.85.15.67.57a1.15,1.15,0,0,1-.73.55.43.43,0,0,1-.53-.58C827.84,487.27,828.19,487.12,828.35,487Z" transform="translate(-796.26 -413.68)"/><path class="cls-72" d="M1003.58,432.52c3.15-3,4.16-8.82,10.38-7.79C1010,426.66,1007.89,431,1003.58,432.52Z" transform="translate(-796.26 -413.68)"/><path class="cls-119" d="M1032.55,428.62l-.78.79c-2.29-1.46-3.58-4-5.87-5.56C1029.23,423.86,1030.58,426.69,1032.55,428.62Z" transform="translate(-796.26 -413.68)"/><path class="cls-120" d="M1023.24,422.28c-.64,2.33-2,3.25-4.21,2.71-.56-.13-1.41-.51-1.07-1.08C1019.1,422,1021,422.11,1023.24,422.28Z" transform="translate(-796.26 -413.68)"/><path class="cls-121" d="M836.83,436.57l-1.69-1.31c1.58-.09,3-.46,4.32.29-.48,1.6-1.77.74-2.66,1Z" transform="translate(-796.26 -413.68)"/><path class="cls-122" d="M808.89,591.06c-.21-1.07.41-1.62,1.27-2C812.18,591.26,809.88,590.74,808.89,591.06Z" transform="translate(-796.26 -413.68)"/><path class="cls-69" d="M1007.32,643l-.75-.67c.86-1.32,1.65-2.75,3.64-2.2l-1.48,2.12Z" transform="translate(-796.26 -413.68)"/><path class="cls-123" d="M880.73,549.58c-5.64,12.67-19.5,21-33.13,19.95-2.4-.72-4.69-2.1-7.36-1.28-5.62-1.2-10.2-4.22-14.21-8.2-.87-.81-1.41-1.92-2.44-2.57-1-1.1-2.5-1.81-2.69-3.53-1-2.16-1.49-4.51-2.32-6.73-.55-1.5-1.67-3.64.78-4.9,15.14,5.73,25.43-5.91,24.16-16.7a16.47,16.47,0,0,0-24.32-12.84c-.92.5-1.82,1-3.57,2,5.07-12.06,12.48-20.63,24.47-24,13.2-3.77,24.72-.33,34.17,9.71a17.77,17.77,0,0,1,2,4.12c.72,2.84,2.82,4.49,5,6.08a35.48,35.48,0,0,1,4.28,18c-.94,2.39.17,5.27-1.78,7.42-1.67.86-2.86,2.34-4.28,3.5-2.26,1.84-1.94,3.3.94,7.56A2.13,2.13,0,0,1,880.73,549.58Z" transform="translate(-796.26 -413.68)"/><path class="cls-124" d="M824.68,541.5c-7.57-2-12.56-6.94-10.92-17.56.72-4.7,5.73-9.46,11.14-10.36a13.68,13.68,0,0,1,13.73,5.61,14.67,14.67,0,0,1-9.14,22.31A7.9,7.9,0,0,0,824.68,541.5Z" transform="translate(-796.26 -413.68)"/><path class="cls-125" d="M819.36,542.32a4.38,4.38,0,0,0,.08,5c1.52,2.16,1.26,4.37,1.46,6.62-3.64-4.36-4.93-9.78-6.93-15.3C816.35,539.34,817.81,540.9,819.36,542.32Z" transform="translate(-796.26 -413.68)"/><path class="cls-126" d="M880.73,549.58l-.72-2.27c.74-4-.11-8.43,3.54-11.51,1.22-2.23.42-5,2.07-7.14C885.78,536.05,884.58,543.12,880.73,549.58Z" transform="translate(-796.26 -413.68)"/><path class="cls-127" d="M881.34,510.64c-5.59-1.16-6-5.93-7.07-10.2A27.61,27.61,0,0,1,881.34,510.64Z" transform="translate(-796.26 -413.68)"/><path class="cls-128" d="M840.24,568.25c3.06-3.07,5.08-.14,7.36,1.28A13.73,13.73,0,0,1,840.24,568.25Z" transform="translate(-796.26 -413.68)"/><path class="cls-129" d="M831.06,569.26l.89-1.2,6.29,3.07C835.64,571.28,833.4,570.09,831.06,569.26Z" transform="translate(-796.26 -413.68)"/><path class="cls-130" d="M824.68,541.5a4.13,4.13,0,0,1,4.81,0Z" transform="translate(-796.26 -413.68)"/><path class="cls-125" d="M823.59,557.48a3,3,0,0,1,2.44,2.57A5.78,5.78,0,0,1,823.59,557.48Z" transform="translate(-796.26 -413.68)"/><path class="cls-131" d="M913.59,620.06a13.45,13.45,0,0,1-5.65-1.52c-.22-1-.57-1.62-1.83-1.5a7,7,0,0,1-4-.75,32,32,0,0,1-13.56-9.69c-6.28-7.66-6.11-17.44.5-24.85,6.85-7.68,15.82-11.49,25.69-13.18,16.66-2.85,32.72-1.53,47.15,8.35,13.33,9.11,14,24,1.54,33.93a41.66,41.66,0,0,1-12.14,6.87,66.3,66.3,0,0,1-31.77,3.48C918.16,617.64,915.52,620.7,913.59,620.06Z" transform="translate(-796.26 -413.68)"/><path class="cls-132" d="M902.12,616.29c1.51,0,3,0,4.54-.07.85,0,1.86-1.15,2.48,0s-1,1.43-1.2,2.31A12.76,12.76,0,0,1,902.12,616.29Z" transform="translate(-796.26 -413.68)"/><path class="cls-133" d="M913.59,620.06l5.36-2.17c.16,1.18-.32,2.41.58,3.31A19.08,19.08,0,0,1,913.59,620.06Z" transform="translate(-796.26 -413.68)"/><path class="cls-123" d="M1013.26,518.46a8,8,0,0,1,4.3,2.38c-1.24,1.21-2.66.68-3.85,1-5.22,1.27-8.87,5.83-9.19,11.79a12.82,12.82,0,0,0,7.81,12.48c5,1.9,8.27-.86,11.52-3.88a1.24,1.24,0,0,1,.07,1.62c0,1.37-.91,2.37-1.55,3.47-2.59.8-3.13,3.57-4.94,5.12a6,6,0,0,1-3.63,2.09c-1.57.77-3.55.3-4.94,1.62l0,0a10.07,10.07,0,0,1-6.64-1.91c-.88-.57-2-1.52-2.88-.63-2.18,2.28-4.26,1.15-6.42.23A19.34,19.34,0,0,1,982.29,533c1.46-8,9.66-15.4,17.7-16C1004.51,516.68,1008.85,517.82,1013.26,518.46Z" transform="translate(-796.26 -413.68)"/><path class="cls-124" d="M1014.83,524.3a8.79,8.79,0,0,1,8.85,9.65c-.41,5.56-3.46,10-8.39,9.82-4.76-.22-7.89-3.79-8-9.54C1007.26,528.84,1010.59,523.79,1014.83,524.3Z" transform="translate(-796.26 -413.68)"/><path class="cls-134" d="M993,553.78c2.08,0,4.6,2.07,5.87-1.63.33-.94,2.17-.09,2.85.48,2.14,1.8,4.71,2.54,7.22,3.46A21.41,21.41,0,0,1,993,553.78Z" transform="translate(-796.26 -413.68)"/><path class="cls-135" d="M1013.26,518.46A37.2,37.2,0,0,1,1000,517C1004.61,515.66,1009,516.46,1013.26,518.46Z" transform="translate(-796.26 -413.68)"/><path class="cls-136" d="M1017.43,552.41c1.15-2.18.7-5.91,4.94-5.12A8.89,8.89,0,0,1,1017.43,552.41Z" transform="translate(-796.26 -413.68)"/><path class="cls-137" d="M1010.9,558.77l.77.79-7.92,1.39-1.45-1.36Z" transform="translate(-796.26 -413.68)"/><path class="cls-138" d="M991.62,556.57c-3.23.84-4.66-.8-5.15-3.74Z" transform="translate(-796.26 -413.68)"/><path class="cls-134" d="M1008.86,556.12c1.16-2,3.15-1.54,4.94-1.62A8.58,8.58,0,0,1,1008.86,556.12Z" transform="translate(-796.26 -413.68)"/><path class="cls-139" d="M1025.41,538.11l.85-2.94c.41,1.21.85,2.4-.11,3.54A1.23,1.23,0,0,1,1025.41,538.11Z" transform="translate(-796.26 -413.68)"/><path class="cls-140" d="M1025.41,538.11l.74.6c-.12,1,.1,2.12-.78,2.93a1,1,0,0,1-.85-.85C1024.82,539.9,1025.12,539,1025.41,538.11Z" transform="translate(-796.26 -413.68)"/><path class="cls-136" d="M1024.52,540.79l.85.85-1.45,2.18c0-.54,0-1.08-.07-1.62S1023.8,541,1024.52,540.79Z" transform="translate(-796.26 -413.68)"/><path class="cls-141" d="M891.44,456.79c-.08.62-.24,1.22-1.05,1a1.3,1.3,0,0,1-.93-1.36.89.89,0,0,1,1.13-1C891.34,455.56,891.4,456.18,891.44,456.79Z" transform="translate(-796.26 -413.68)"/><path class="cls-142" d="M974.25,617.79c2.23.39,4.7.36,1.66,3.58-1.3,1.37-3,2.49-3.89,4.29-1.34-1.18-1.14-2.36,0-3.53C972.88,620.73,975.08,620,974.25,617.79Z" transform="translate(-796.26 -413.68)"/><path class="cls-143" d="M970.64,626.38a3.54,3.54,0,0,0-1.31.42c-1.31,1.12-2.74.74-3.08-.53-.19-.72-.29-3.3,2.23-2.72C969.59,624.2,970.88,624.71,970.64,626.38Z" transform="translate(-796.26 -413.68)"/><path class="cls-144" d="M970.64,626.38c-.35-1.22-2.22-1.29-2.16-2.83a4,4,0,0,1,3.55-1.42v3.53c-.24.24-.47.49-.71.74H971Z" transform="translate(-796.26 -413.68)"/><path class="cls-145" d="M867,534.37c.4-.4,1.23-1,1.15-1.16-1.12-2.07.3-2.24,1.73-2.44.21.67.24,1.52.68,2a3.2,3.2,0,0,1-.77,5.23c-.57.25-1.1.39-1.31,1-.37,1.11-.85,2.07-2.3,1.4-1.93-.88-.48-1.26.14-2.09.48-.64-.81-.91-1.18-1.46s-1-1.21-.37-1.91S865.93,533.14,867,534.37Z" transform="translate(-796.26 -413.68)"/><path class="cls-146" d="M883.55,535.8c-1.83,3.16-2.21,6.68-2.49,10.23a1.45,1.45,0,0,1-1.06,1.28c-4.06-3.45-4.09-6.22.17-8.89C881.41,537.64,881.17,535,883.55,535.8Z" transform="translate(-796.26 -413.68)"/><path class="cls-145" d="M872.47,526a7.57,7.57,0,0,1,1.36,2.66c.12,1.24-1,2.12-2.2,2.38-.36.08-2,.51-1.68-.94S869.4,526.29,872.47,526Z" transform="translate(-796.26 -413.68)"/><path class="cls-147" d="M919.79,589.58c0,7.31-5.34,13.25-11.82,13.2-7.63-.06-13.07-5.75-13-13.64,0-6.9,5.81-13.16,12.14-13.2C914.18,575.9,919.81,582,919.79,589.58Z" transform="translate(-796.26 -413.68)"/><path class="cls-148" d="M952.16,586c0,5.67-4.06,10.13-9.32,10.17a10.07,10.07,0,0,1-.19-20.13C947.94,576,952.14,580.43,952.16,586Z" transform="translate(-796.26 -413.68)"/><path class="cls-149" d="M933,575a9.14,9.14,0,0,1,6.07-3.34A13.42,13.42,0,0,1,933,575Z" transform="translate(-796.26 -413.68)"/><path class="cls-150" d="M932.47,606c1-2.37,3.32-2.37,5.3-3C936.46,604.75,934.38,605.18,932.47,606Z" transform="translate(-796.26 -413.68)"/><path class="cls-151" d="M924.58,609.56c1.69-1,3.13-2.57,5.32-2.43A9.24,9.24,0,0,1,924.58,609.56Z" transform="translate(-796.26 -413.68)"/><path class="cls-152" d="M956.7,599.88c.6,0,.86.42.68.94a1.36,1.36,0,0,1-1.27,1.08c-.4,0-1.08.09-.87-.69A1.56,1.56,0,0,1,956.7,599.88Z" transform="translate(-796.26 -413.68)"/><path class="cls-153" d="M938.77,596.45c-1.18.85-2,1.45-2.84.48-.19-.21-.3-.85-.2-.91C936.69,595.4,937.46,596.26,938.77,596.45Z" transform="translate(-796.26 -413.68)"/><path class="cls-154" d="M913,617.41c1-1.21,2.3-1.57,4.17-1.79C915.81,617.22,914.24,617.05,913,617.41Z" transform="translate(-796.26 -413.68)"/><path class="cls-155" d="M932.88,572c-2.21,1.18-3.43.2-4.67,0Z" transform="translate(-796.26 -413.68)"/><path class="cls-156" d="M933,615.79c-.84,1.23-1.73,1.65-3.53,1.94A5,5,0,0,1,933,615.79Z" transform="translate(-796.26 -413.68)"/><path class="cls-157" d="M902.3,608.7c.12-.2.23-.66.45-.73.52-.14.87.23.86.75,0,.3-.18.82-.37.86C902.73,609.69,902.42,609.33,902.3,608.7Z" transform="translate(-796.26 -413.68)"/><path class="cls-158" d="M952.53,575.2a3.38,3.38,0,0,1-2-2.66A3.29,3.29,0,0,1,952.53,575.2Z" transform="translate(-796.26 -413.68)"/><path class="cls-123" d="M867.05,534.31c-.17.68.27,1.74-.65,1.8s-.59-.69-.22-1.15A4.92,4.92,0,0,1,867.05,534.31Z" transform="translate(-796.26 -413.68)"/><path class="cls-159" d="M916.67,589.43c0,5.81-4,10.75-8.66,10.74-6.47,0-10-5.53-10.59-10.63-.47-4.36,5.83-11.27,9.85-11.27C912.3,578.26,916.68,583.46,916.67,589.43Z" transform="translate(-796.26 -413.68)"/><path class="cls-159" d="M949.72,586.22c-.06,3.52-3.75,7.15-7.23,7.11-3.77-.05-7.15-3.84-7.11-8,0-3.76,3.27-6.51,7.51-6.4A7.19,7.19,0,0,1,949.72,586.22Z" transform="translate(-796.26 -413.68)"/></svg>